G04*
G04 #@! TF.GenerationSoftware,Altium Limited,Altium Designer,20.0.10 (225)*
G04*
G04 Layer_Color=8421504*
%FSLAX25Y25*%
%MOIN*%
G70*
G01*
G75*
%ADD19R,0.04134X0.05512*%
%ADD20R,0.04200X0.05315*%
%ADD21R,0.05315X0.04200*%
%ADD22R,0.05315X0.04300*%
G04:AMPARAMS|DCode=23|XSize=21.65mil|YSize=31.5mil|CornerRadius=1.95mil|HoleSize=0mil|Usage=FLASHONLY|Rotation=0.000|XOffset=0mil|YOffset=0mil|HoleType=Round|Shape=RoundedRectangle|*
%AMROUNDEDRECTD23*
21,1,0.02165,0.02760,0,0,0.0*
21,1,0.01776,0.03150,0,0,0.0*
1,1,0.00390,0.00888,-0.01380*
1,1,0.00390,-0.00888,-0.01380*
1,1,0.00390,-0.00888,0.01380*
1,1,0.00390,0.00888,0.01380*
%
%ADD23ROUNDEDRECTD23*%
G04:AMPARAMS|DCode=24|XSize=21.65mil|YSize=31mil|CornerRadius=1.95mil|HoleSize=0mil|Usage=FLASHONLY|Rotation=0.000|XOffset=0mil|YOffset=0mil|HoleType=Round|Shape=RoundedRectangle|*
%AMROUNDEDRECTD24*
21,1,0.02165,0.02710,0,0,0.0*
21,1,0.01776,0.03100,0,0,0.0*
1,1,0.00390,0.00888,-0.01355*
1,1,0.00390,-0.00888,-0.01355*
1,1,0.00390,-0.00888,0.01355*
1,1,0.00390,0.00888,0.01355*
%
%ADD24ROUNDEDRECTD24*%
%ADD25R,0.06102X0.05315*%
%ADD26R,0.05709X0.04528*%
%ADD27R,0.01181X0.06102*%
%ADD28R,0.06102X0.01181*%
%ADD29R,0.21457X0.25984*%
%ADD30R,0.02362X0.05906*%
%ADD31R,0.03543X0.06299*%
%ADD32C,0.03200*%
%ADD33R,0.04724X0.04724*%
%ADD34R,0.04724X0.04724*%
%ADD35R,0.05315X0.03740*%
%ADD36R,0.03740X0.05315*%
%ADD37R,0.04724X0.05709*%
%ADD38R,0.05315X0.06102*%
%ADD39R,0.05118X0.08268*%
%ADD40R,0.03937X0.05315*%
%ADD41R,0.05315X0.02165*%
D19*
X210260Y100000D02*
D03*
X217740D02*
D03*
D20*
X76244Y69500D02*
D03*
X81756D02*
D03*
X235000Y46000D02*
D03*
X240512D02*
D03*
X192256Y25000D02*
D03*
X186744D02*
D03*
D21*
X268000Y65256D02*
D03*
Y59744D02*
D03*
X231500Y558756D02*
D03*
Y553244D02*
D03*
X230000Y266512D02*
D03*
Y261000D02*
D03*
X231500Y147512D02*
D03*
Y142000D02*
D03*
X229778Y383012D02*
D03*
Y377500D02*
D03*
D22*
X210500Y53800D02*
D03*
Y48200D02*
D03*
X89500Y114300D02*
D03*
Y108700D02*
D03*
D23*
X231700Y584020D02*
D03*
X224260Y573980D02*
D03*
X231740D02*
D03*
X231200Y402520D02*
D03*
X223760Y392480D02*
D03*
X231240D02*
D03*
X231700Y290020D02*
D03*
X224260Y279980D02*
D03*
X231740D02*
D03*
X231700Y177020D02*
D03*
X224260Y166980D02*
D03*
X231740D02*
D03*
D24*
X228000Y584020D02*
D03*
X224260D02*
D03*
X227500Y402520D02*
D03*
X223760D02*
D03*
X228000Y290020D02*
D03*
X224260D02*
D03*
X228000Y177020D02*
D03*
X224260D02*
D03*
D25*
X216000Y173839D02*
D03*
Y166161D02*
D03*
X215500Y399177D02*
D03*
Y391500D02*
D03*
X197445Y575000D02*
D03*
Y582677D02*
D03*
D26*
X216000Y285890D02*
D03*
Y279000D02*
D03*
X212500Y582382D02*
D03*
Y575492D02*
D03*
D27*
X192764Y82637D02*
D03*
X190795D02*
D03*
X188827D02*
D03*
X186858D02*
D03*
X184890D02*
D03*
X182921D02*
D03*
X180953D02*
D03*
X178984D02*
D03*
X177016D02*
D03*
X175047D02*
D03*
X173079D02*
D03*
X171110D02*
D03*
X169142D02*
D03*
X167173D02*
D03*
X165205D02*
D03*
X163236D02*
D03*
Y37362D02*
D03*
X165205D02*
D03*
X167173D02*
D03*
X169142D02*
D03*
X171110D02*
D03*
X173079D02*
D03*
X175047D02*
D03*
X177016D02*
D03*
X178984D02*
D03*
X180953D02*
D03*
X182921D02*
D03*
X184890D02*
D03*
X186858D02*
D03*
X188827D02*
D03*
X190795D02*
D03*
X192764D02*
D03*
D28*
X155362Y74763D02*
D03*
Y72795D02*
D03*
Y70826D02*
D03*
Y68858D02*
D03*
Y66889D02*
D03*
Y64921D02*
D03*
Y62952D02*
D03*
Y60984D02*
D03*
Y59015D02*
D03*
Y57047D02*
D03*
Y55078D02*
D03*
Y53110D02*
D03*
Y51141D02*
D03*
Y49173D02*
D03*
Y47204D02*
D03*
Y45236D02*
D03*
X200638D02*
D03*
Y47204D02*
D03*
Y49173D02*
D03*
Y51141D02*
D03*
Y53110D02*
D03*
Y55078D02*
D03*
Y57047D02*
D03*
Y59015D02*
D03*
Y60984D02*
D03*
Y62952D02*
D03*
Y64921D02*
D03*
Y66889D02*
D03*
Y68858D02*
D03*
Y70826D02*
D03*
Y72795D02*
D03*
Y74763D02*
D03*
D29*
X60421Y131500D02*
D03*
D30*
X76299Y53622D02*
D03*
X86299Y32756D02*
D03*
X81299D02*
D03*
X76299D02*
D03*
X71299D02*
D03*
Y53622D02*
D03*
X81299D02*
D03*
X86299D02*
D03*
D31*
X69398Y107484D02*
D03*
X51445D02*
D03*
D32*
X238500Y65000D02*
D03*
X277500Y75000D02*
D03*
X52000Y21000D02*
D03*
X80365Y21365D02*
D03*
X99000Y52500D02*
D03*
X92500Y46500D02*
D03*
X238500Y60000D02*
D03*
X192000Y113000D02*
D03*
X143000Y57000D02*
D03*
X194500Y122500D02*
D03*
X208000Y216000D02*
D03*
X207500Y329500D02*
D03*
Y440000D02*
D03*
X183500Y582500D02*
D03*
X26500Y625000D02*
D03*
D33*
X197500Y536366D02*
D03*
Y544634D02*
D03*
D34*
X182634Y128500D02*
D03*
X174366D02*
D03*
X216134Y199000D02*
D03*
X207866D02*
D03*
X216134Y313500D02*
D03*
X207866D02*
D03*
X216134Y424000D02*
D03*
X207866D02*
D03*
X121634Y648000D02*
D03*
X113366D02*
D03*
D35*
X177000Y113500D02*
D03*
Y107398D02*
D03*
X52000Y14551D02*
D03*
Y8449D02*
D03*
X183500Y522897D02*
D03*
Y529000D02*
D03*
Y546500D02*
D03*
Y552602D02*
D03*
D36*
X207949Y191500D02*
D03*
X214051D02*
D03*
X124602Y162000D02*
D03*
X118500D02*
D03*
X125051Y387000D02*
D03*
X118949D02*
D03*
D37*
X208063Y306000D02*
D03*
X215937D02*
D03*
X44563Y648000D02*
D03*
X52437D02*
D03*
D38*
X126677Y274500D02*
D03*
X119000D02*
D03*
D39*
X235000Y17945D02*
D03*
X255000D02*
D03*
Y36055D02*
D03*
X235000D02*
D03*
D40*
X207957Y417000D02*
D03*
X215043D02*
D03*
D41*
X33500Y115338D02*
D03*
Y107661D02*
D03*
Y401661D02*
D03*
Y409338D02*
D03*
Y289161D02*
D03*
Y296838D02*
D03*
Y176661D02*
D03*
Y184338D02*
D03*
M02*
