G04*
G04 #@! TF.GenerationSoftware,Altium Limited,Altium Designer,20.0.10 (225)*
G04*
G04 Layer_Color=16711935*
%FSLAX25Y25*%
%MOIN*%
G70*
G01*
G75*
%ADD42R,0.10000X0.25000*%
%ADD64C,0.00800*%
%ADD65O,0.10700X0.27100*%
%ADD66C,0.06800*%
%ADD67C,0.08280*%
%ADD68R,0.08280X0.08280*%
%ADD69C,0.05642*%
%ADD70R,0.05642X0.05642*%
%ADD71C,0.08083*%
%ADD72R,0.04600X0.04600*%
%ADD73C,0.04600*%
%ADD74C,0.06698*%
%ADD75R,0.08324X0.08324*%
%ADD76C,0.08324*%
%ADD77C,0.11572*%
%ADD78C,0.03300*%
D42*
X252000Y70000D02*
D03*
D64*
X95900Y721800D02*
D03*
X28700D02*
D03*
X248000Y698996D02*
D03*
Y656996D02*
D03*
Y614500D02*
D03*
X248000Y529996D02*
D03*
Y487996D02*
D03*
Y445500D02*
D03*
Y400996D02*
D03*
Y357996D02*
D03*
Y315996D02*
D03*
Y273500D02*
D03*
Y229496D02*
D03*
Y187496D02*
D03*
Y145000D02*
D03*
X95800Y671300D02*
D03*
X28600D02*
D03*
X41811Y29512D02*
D03*
X6378D02*
D03*
X41811Y80201D02*
D03*
X6378D02*
D03*
D65*
X47600Y730000D02*
D03*
X77000D02*
D03*
X47500Y679500D02*
D03*
X76900D02*
D03*
D66*
X8500Y748500D02*
D03*
X122000Y14500D02*
D03*
X285000D02*
D03*
X301500Y748500D02*
D03*
X30000Y25811D02*
D03*
Y14000D02*
D03*
X18189Y25811D02*
D03*
Y14000D02*
D03*
X30000Y76500D02*
D03*
Y64689D02*
D03*
X18189Y76500D02*
D03*
Y64689D02*
D03*
D67*
X193799Y364019D02*
D03*
Y289019D02*
D03*
X131280D02*
D03*
X118760D02*
D03*
X106240D02*
D03*
X56240D02*
D03*
X193799Y251519D02*
D03*
Y176519D02*
D03*
X131280D02*
D03*
X118760D02*
D03*
X106240D02*
D03*
X56240D02*
D03*
Y401519D02*
D03*
X106240D02*
D03*
X118760D02*
D03*
X131280D02*
D03*
X193799D02*
D03*
Y476519D02*
D03*
D68*
X56240Y364019D02*
D03*
Y251519D02*
D03*
Y476519D02*
D03*
D69*
X229890Y467500D02*
D03*
Y241500D02*
D03*
Y355500D02*
D03*
X70390Y625500D02*
D03*
D70*
X216110Y467500D02*
D03*
Y241500D02*
D03*
Y355500D02*
D03*
X56610Y625500D02*
D03*
D71*
X282843Y687500D02*
D03*
X257252D02*
D03*
X282843Y645500D02*
D03*
X257252D02*
D03*
X282843Y603004D02*
D03*
X257252D02*
D03*
X282843Y518500D02*
D03*
X257252D02*
D03*
X282843Y476500D02*
D03*
X257252D02*
D03*
X282843Y434004D02*
D03*
X257252D02*
D03*
X282843Y389500D02*
D03*
X257252D02*
D03*
X282843Y346500D02*
D03*
X257252D02*
D03*
X282843Y304500D02*
D03*
X257252D02*
D03*
X282843Y262004D02*
D03*
X257252D02*
D03*
X282843Y218000D02*
D03*
X257252D02*
D03*
X282843Y176000D02*
D03*
X257252D02*
D03*
X282843Y133504D02*
D03*
X257252D02*
D03*
D72*
X254500Y60000D02*
D03*
D73*
X249500D02*
D03*
X254500Y65000D02*
D03*
X249500D02*
D03*
X254500Y70000D02*
D03*
X249500D02*
D03*
X254500Y75000D02*
D03*
X249500D02*
D03*
X254500Y80000D02*
D03*
X249500D02*
D03*
D74*
X210642Y66705D02*
D03*
Y92295D02*
D03*
X228358Y66705D02*
D03*
Y92295D02*
D03*
D75*
X56813Y582500D02*
D03*
D76*
Y552578D02*
D03*
Y522657D02*
D03*
X166656Y552578D02*
D03*
Y567539D02*
D03*
D77*
Y522657D02*
D03*
Y582500D02*
D03*
D78*
X180046Y75046D02*
D03*
X231000Y162000D02*
D03*
X171500Y107500D02*
D03*
X197500Y25000D02*
D03*
X211000Y59500D02*
D03*
X231500Y153500D02*
D03*
X225500Y147500D02*
D03*
X217500Y266500D02*
D03*
X218000Y383000D02*
D03*
X39500Y21000D02*
D03*
X23239Y20761D02*
D03*
X120000Y142823D02*
D03*
X125000Y141500D02*
D03*
X130500Y140000D02*
D03*
X136000Y138500D02*
D03*
X60500Y150500D02*
D03*
X33500Y123500D02*
D03*
X163250Y133250D02*
D03*
X81393Y60893D02*
D03*
X86500Y64000D02*
D03*
X76500Y61000D02*
D03*
X71000Y69500D02*
D03*
X89500Y121500D02*
D03*
X222500Y199000D02*
D03*
X232000Y181500D02*
D03*
X228000D02*
D03*
X216000D02*
D03*
X224000D02*
D03*
X222500Y313500D02*
D03*
X232000Y294500D02*
D03*
X228000D02*
D03*
X216000D02*
D03*
X224000D02*
D03*
X231500Y407000D02*
D03*
X227500D02*
D03*
X215500D02*
D03*
X223500D02*
D03*
X222000Y424000D02*
D03*
X212500Y588000D02*
D03*
X224000Y588500D02*
D03*
X228000Y589000D02*
D03*
X33500Y189000D02*
D03*
Y301500D02*
D03*
Y414000D02*
D03*
X197500Y550000D02*
D03*
Y569000D02*
D03*
X225000Y558500D02*
D03*
X237000Y574000D02*
D03*
Y559000D02*
D03*
X236500Y584000D02*
D03*
X58063Y648000D02*
D03*
X108000Y648000D02*
D03*
X160882Y74618D02*
D03*
X196000Y109500D02*
D03*
X227000Y136500D02*
D03*
X232000Y137000D02*
D03*
X241000Y138000D02*
D03*
X236500Y137500D02*
D03*
X226500Y60500D02*
D03*
X192000Y62000D02*
D03*
X195000Y44500D02*
D03*
X152000Y107500D02*
D03*
X216500Y109500D02*
D03*
X194500Y122500D02*
D03*
X234781Y56219D02*
D03*
M02*
