%FSTAX23Y23*%
%MOIN*%
%SFA1B1*%

%IPPOS*%
%ADD42R,0.100000X0.250000*%
%ADD64C,0.008000*%
%ADD65O,0.107000X0.271000*%
%ADD66C,0.068000*%
%ADD67C,0.082800*%
%ADD68R,0.082800X0.082800*%
%ADD69C,0.056420*%
%ADD70R,0.056420X0.056420*%
%ADD71C,0.080830*%
%ADD72R,0.046000X0.046000*%
%ADD73C,0.046000*%
%ADD74C,0.066980*%
%ADD75R,0.083240X0.083240*%
%ADD76C,0.083240*%
%ADD77C,0.115720*%
%ADD78C,0.033000*%
%LNchassispowerdistribution_b_1.0_rw-1*%
%LPD*%
G54D42*
X0252Y007D03*
G54D64*
X00959Y07218D03*
X00287D03*
X0248Y06989D03*
Y06569D03*
Y06145D03*
Y05299D03*
Y04879D03*
Y04455D03*
Y04009D03*
Y03579D03*
Y03159D03*
Y02735D03*
Y02294D03*
Y01874D03*
Y0145D03*
X00958Y06713D03*
X00286D03*
X00418Y00295D03*
X00063D03*
X00418Y00802D03*
X00063D03*
G54D65*
X00476Y073D03*
X0077D03*
X00475Y06795D03*
X00769D03*
G54D66*
X00085Y07485D03*
X0122Y00145D03*
X0285D03*
X03015Y07485D03*
X003Y00258D03*
Y0014D03*
X00181Y00258D03*
Y0014D03*
X003Y00765D03*
Y00646D03*
X00181Y00765D03*
Y00646D03*
G54D67*
X01937Y0364D03*
Y0289D03*
X01312D03*
X01187D03*
X01062D03*
X00562D03*
X01937Y02515D03*
Y01765D03*
X01312D03*
X01187D03*
X01062D03*
X00562D03*
Y04015D03*
X01062D03*
X01187D03*
X01312D03*
X01937D03*
Y04765D03*
G54D68*
X00562Y0364D03*
Y02515D03*
Y04765D03*
G54D69*
X02298Y04675D03*
Y02415D03*
Y03555D03*
X00703Y06255D03*
G54D70*
X02161Y04675D03*
Y02415D03*
Y03555D03*
X00566Y06255D03*
G54D71*
X02828Y06875D03*
X02572D03*
X02828Y06455D03*
X02572D03*
X02828Y0603D03*
X02572D03*
X02828Y05185D03*
X02572D03*
X02828Y04765D03*
X02572D03*
X02828Y0434D03*
X02572D03*
X02828Y03895D03*
X02572D03*
X02828Y03465D03*
X02572D03*
X02828Y03045D03*
X02572D03*
X02828Y0262D03*
X02572D03*
X02828Y0218D03*
X02572D03*
X02828Y0176D03*
X02572D03*
X02828Y01335D03*
X02572D03*
G54D72*
X02545Y006D03*
G54D73*
X02495Y006D03*
X02545Y0065D03*
X02495D03*
X02545Y007D03*
X02495D03*
X02545Y0075D03*
X02495D03*
X02545Y008D03*
X02495D03*
G54D74*
X02106Y00667D03*
Y00922D03*
X02283Y00667D03*
Y00922D03*
G54D75*
X00568Y05825D03*
G54D76*
X00568Y05525D03*
Y05226D03*
X01666Y05525D03*
Y05675D03*
G54D77*
X01666Y05226D03*
Y05825D03*
G54D78*
X018Y0075D03*
X0231Y0162D03*
X01715Y01075D03*
X01975Y0025D03*
X0211Y00595D03*
X02315Y01535D03*
X02255Y01475D03*
X02175Y02665D03*
X0218Y0383D03*
X00395Y0021D03*
X00232Y00207D03*
X012Y01428D03*
X0125Y01415D03*
X01305Y014D03*
X0136Y01385D03*
X00605Y01505D03*
X00335Y01235D03*
X01632Y01332D03*
X00813Y00608D03*
X00865Y0064D03*
X00765Y0061D03*
X0071Y00695D03*
X00895Y01215D03*
X02225Y0199D03*
X0232Y01815D03*
X0228D03*
X0216D03*
X0224D03*
X02225Y03135D03*
X0232Y02945D03*
X0228D03*
X0216D03*
X0224D03*
X02315Y0407D03*
X02275D03*
X02155D03*
X02235D03*
X0222Y0424D03*
X02125Y0588D03*
X0224Y05885D03*
X0228Y0589D03*
X00335Y0189D03*
Y03015D03*
Y0414D03*
X01975Y055D03*
Y0569D03*
X0225Y05585D03*
X0237Y0574D03*
Y0559D03*
X02365Y0584D03*
X0058Y0648D03*
X0108D03*
X01608Y00746D03*
X0196Y01095D03*
X0227Y01365D03*
X0232Y0137D03*
X0241Y0138D03*
X02365Y01375D03*
X02265Y00605D03*
X0192Y0062D03*
X0195Y00445D03*
X0152Y01075D03*
X02165Y01095D03*
X01945Y01225D03*
X02347Y00562D03*
M02*