%FSTAX23Y23*%
%MOIN*%
%SFA1B1*%

%IPPOS*%
%ADD54C,0.040000*%
%ADD79C,0.011000*%
%ADD80C,0.025000*%
%ADD81O,0.099000X0.263000*%
%ADD82C,0.060000*%
%ADD83C,0.074800*%
%ADD84R,0.074800X0.074800*%
%ADD85C,0.048420*%
%ADD86R,0.048420X0.048420*%
%ADD87C,0.072840*%
%ADD88R,0.040000X0.040000*%
%ADD89C,0.058980*%
%ADD90R,0.075240X0.075240*%
%ADD91C,0.075240*%
%ADD92C,0.107720*%
%ADD93C,0.025000*%
%LNchassispowerdistribution_b_1.0_rw-1*%
%LPD*%
G36*
X00625Y06507D02*
X0058D01*
X0058*
X00573Y06506*
X00566Y06504*
X00561Y06499*
X00556Y06493*
X00553Y06487*
X00552Y0648*
X00553Y06472*
X00556Y06466*
X00561Y0646*
X00566Y06455*
X00573Y06453*
X0058Y06452*
X00625*
Y05745*
X00455*
Y04697*
X00315Y04557*
X0031Y04551*
X00308Y04544*
X00307Y04537*
Y0414*
X00308Y04132*
X0031Y04126*
X00315Y0412*
X00321Y04115*
X00327Y04113*
X00335Y04112*
X00342Y04113*
X00348Y04115*
X00354Y0412*
X00359Y04126*
X00361Y04132*
X00362Y0414*
Y04526*
X0045Y04613*
X00455Y04612*
Y0407*
X00635*
Y0396*
X00455*
Y03572*
X00315Y03432*
X0031Y03426*
X00308Y03419*
X00307Y03412*
Y03015*
X00308Y03007*
X0031Y03001*
X00315Y02995*
X00321Y0299*
X00327Y02988*
X00335Y02987*
X00342Y02988*
X00348Y0299*
X00354Y02995*
X00359Y03001*
X00361Y03007*
X00362Y03015*
Y03401*
X0045Y03488*
X00455Y03487*
Y0295*
X00635*
Y0283*
X00455*
Y02447*
X00315Y02307*
X0031Y02301*
X00308Y02294*
X00307Y02287*
Y0189*
X00308Y01882*
X0031Y01876*
X00315Y0187*
X00321Y01865*
X00327Y01863*
X00335Y01862*
X00342Y01863*
X00348Y01865*
X00354Y0187*
X00359Y01876*
X00361Y01882*
X00362Y0189*
Y02276*
X0045Y02363*
X00455Y02362*
Y0182*
X00635*
Y01705*
X00455*
Y01394*
X00315Y01254*
X0031Y01248*
X00308Y01242*
X00307Y01235*
X00308Y01227*
X0031Y01221*
X00315Y01215*
X00321Y0121*
X00327Y01208*
X00335Y01207*
X00342Y01208*
X00348Y0121*
X00354Y01215*
X0045Y01311*
X00455Y01309*
Y01125*
X00555*
Y01025*
X00025*
Y07427*
X00027Y07428*
X0003Y07429*
X00041Y07419*
X00055Y07412*
X00069Y07408*
X00085Y07406*
X001Y07408*
X00114Y07412*
X00128Y07419*
X0014Y07429*
X0015Y07441*
X00157Y07455*
X00161Y07469*
X00163Y07485*
X00161Y075*
X00157Y07514*
X00152Y07525*
X00155Y0753*
X00625*
Y06507*
G37*
G36*
X01035Y07525D02*
X01035Y07525D01*
X02943*
X02945Y0752*
X02942Y07514*
X02938Y075*
X02936Y07485*
X02938Y07469*
X02942Y07455*
X02949Y07441*
X02959Y07429*
X02971Y07419*
X02985Y07412*
X02999Y07408*
X03015Y07406*
X0303Y07408*
X03044Y07412*
X03045Y07412*
X0305Y0741*
Y0125*
X02725*
Y05125*
X0243*
Y05795*
X02429Y05803*
X02424Y05809*
X02392Y05842*
X02391Y05847*
X02389Y05853*
X02384Y05859*
X02378Y05864*
X02372Y05866*
X02365Y05867*
X02357Y05866*
X02351Y05864*
X02345Y05859*
X0234Y05853*
X02338Y05847*
X02337Y0584*
X02338Y05832*
X0234Y05826*
X02345Y0582*
X02351Y05815*
X02357Y05813*
X02362Y05812*
X02389Y05786*
Y05765*
X02384Y05763*
X02383Y05764*
X02377Y05766*
X0237Y05767*
X02362Y05766*
X02356Y05764*
X0235Y05759*
X02345Y05753*
X02343Y05747*
X02342Y0574*
Y0559*
X02343Y05582*
X02345Y05576*
X0235Y0557*
X02356Y05565*
X02362Y05563*
X0237Y05562*
X02377Y05563*
X02383Y05565*
X02384Y05566*
X02389Y05564*
Y05125*
X0235*
Y04625*
X0225*
Y0475*
X02085*
Y0471*
X02062*
Y05295*
X02269Y05502*
X02274Y05508*
X02276Y05515*
X02277Y05522*
Y05585*
X02276Y05592*
X02274Y05598*
X02269Y05604*
X02263Y05609*
X02257Y05611*
X0225Y05612*
X02242Y05611*
X02236Y05609*
X0223Y05604*
X02225Y05598*
X02223Y05592*
X02222Y05585*
Y05534*
X02014Y05326*
X0201Y0532*
X02007Y05314*
X02006Y05307*
Y0471*
X0186*
X0126Y0411*
X01005*
Y03987*
X009Y03882*
X00895Y03875*
X00889Y03869*
Y01774*
X00884Y01772*
X0086Y01796*
X00864Y018*
Y04167*
X00865Y05248*
Y05248*
Y05248*
X00865Y05252*
X00864Y05256*
Y05259*
X0065Y05473*
Y06452*
X0108*
X01087Y06453*
X01093Y06455*
X01099Y0646*
X01104Y06466*
X01106Y06472*
X01107Y0648*
X01106Y06487*
X01104Y06493*
X01099Y06499*
X01093Y06504*
X01087Y06506*
X0108Y06507*
X0065*
Y0753*
X01033*
X01035Y07525*
G37*
%LNchassispowerdistribution_b_1.0_rw-2*%
%LPC*%
G36*
X00287Y07292D02*
X00272Y0729D01*
X00258Y07286*
X00245Y07279*
X00234Y0727*
X00225Y07259*
X00218Y07246*
X00214Y07232*
X00212Y07218*
X00214Y07203*
X00218Y07189*
X00225Y07176*
X00234Y07165*
X00245Y07156*
X00258Y07149*
X00272Y07145*
X00287Y07143*
X00301Y07145*
X00315Y07149*
X00328Y07156*
X00339Y07165*
X00348Y07176*
X00355Y07189*
X00359Y07203*
X00361Y07218*
X00359Y07232*
X00355Y07246*
X00348Y07259*
X00339Y0727*
X00328Y07279*
X00315Y07286*
X00301Y0729*
X00287Y07292*
G37*
G36*
X00286Y06787D02*
X00271Y06785D01*
X00257Y06781*
X00244Y06774*
X00233Y06765*
X00224Y06754*
X00217Y06741*
X00213Y06727*
X00211Y06713*
X00213Y06698*
X00217Y06684*
X00224Y06671*
X00233Y0666*
X00244Y06651*
X00257Y06644*
X00271Y0664*
X00286Y06638*
X003Y0664*
X00314Y06644*
X00327Y06651*
X00338Y0666*
X00347Y06671*
X00354Y06684*
X00358Y06698*
X0036Y06713*
X00358Y06727*
X00354Y06741*
X00347Y06754*
X00338Y06765*
X00327Y06774*
X00314Y06781*
X003Y06785*
X00286Y06787*
G37*
G36*
X006Y06289D02*
X00576D01*
Y06265*
X006*
Y06289*
G37*
G36*
X00556D02*
X00531D01*
Y06265*
X00556*
Y06289*
G37*
G36*
X006Y06245D02*
X00576D01*
Y0622*
X006*
Y06245*
G37*
G36*
X00556D02*
X00531D01*
Y0622*
X00556*
Y06245*
G37*
G36*
X00959Y07292D02*
X00944Y0729D01*
X0093Y07286*
X00917Y07279*
X00906Y0727*
X00897Y07259*
X0089Y07246*
X00886Y07232*
X00884Y07218*
X00886Y07203*
X0089Y07189*
X00897Y07176*
X00906Y07165*
X00917Y07156*
X0093Y07149*
X00944Y07145*
X00959Y07143*
X00973Y07145*
X00987Y07149*
X01Y07156*
X01011Y07165*
X0102Y07176*
X01027Y07189*
X01031Y07203*
X01033Y07218*
X01031Y07232*
X01027Y07246*
X0102Y07259*
X01011Y0727*
X01Y07279*
X00987Y07286*
X00973Y0729*
X00959Y07292*
G37*
G36*
X0248Y07028D02*
X02469Y07027D01*
X0246Y07023*
X02452Y07017*
X02446Y07009*
X02442Y07*
X02441Y06989*
X02442Y06979*
X02446Y0697*
X02452Y06962*
X0246Y06956*
X02469Y06952*
X0248Y06951*
X0249Y06952*
X02499Y06956*
X02507Y06962*
X02513Y0697*
X02517Y06979*
X02518Y06989*
X02517Y07*
X02513Y07009*
X02507Y07017*
X02499Y07023*
X0249Y07027*
X0248Y07028*
G37*
G36*
X02572Y06926D02*
X02559Y06925D01*
X02546Y06919*
X02535Y06911*
X02527Y069*
X02522Y06888*
X0252Y06875*
X02522Y06861*
X02527Y06849*
X02535Y06838*
X02546Y0683*
X02559Y06824*
X02572Y06823*
X02585Y06824*
X02598Y0683*
X02609Y06838*
X02617Y06849*
X02622Y06861*
X02624Y06875*
X02622Y06888*
X02617Y069*
X02609Y06911*
X02598Y06919*
X02585Y06925*
X02572Y06926*
G37*
G36*
X00958Y06787D02*
X00943Y06785D01*
X00929Y06781*
X00916Y06774*
X00905Y06765*
X00896Y06754*
X00889Y06741*
X00885Y06727*
X00883Y06713*
X00885Y06698*
X00889Y06684*
X00896Y06671*
X00905Y0666*
X00916Y06651*
X00929Y06644*
X00943Y0664*
X00958Y06638*
X00972Y0664*
X00986Y06644*
X00999Y06651*
X0101Y0666*
X01019Y06671*
X01026Y06684*
X0103Y06698*
X01032Y06713*
X0103Y06727*
X01026Y06741*
X01019Y06754*
X0101Y06765*
X00999Y06774*
X00986Y06781*
X00972Y06785*
X00958Y06787*
G37*
G36*
X0248Y06608D02*
X02469Y06607D01*
X0246Y06603*
X02452Y06597*
X02446Y06589*
X02442Y0658*
X02441Y06569*
X02442Y06559*
X02446Y0655*
X02452Y06542*
X0246Y06536*
X02469Y06532*
X0248Y06531*
X0249Y06532*
X02499Y06536*
X02507Y06542*
X02513Y0655*
X02517Y06559*
X02518Y06569*
X02517Y0658*
X02513Y06589*
X02507Y06597*
X02499Y06603*
X0249Y06607*
X0248Y06608*
G37*
G36*
X02572Y06506D02*
X02559Y06505D01*
X02546Y06499*
X02535Y06491*
X02527Y0648*
X02522Y06468*
X0252Y06455*
X02522Y06441*
X02527Y06429*
X02535Y06418*
X02546Y0641*
X02559Y06404*
X02572Y06403*
X02585Y06404*
X02598Y0641*
X02609Y06418*
X02617Y06429*
X02622Y06441*
X02624Y06455*
X02622Y06468*
X02617Y0648*
X02609Y06491*
X02598Y06499*
X02585Y06505*
X02572Y06506*
G37*
G36*
X00713Y06287D02*
Y06265D01*
X00736*
X00733Y06272*
X00728Y06279*
X00721Y06284*
X00713Y06287*
G37*
G36*
X00693D02*
X00686Y06284D01*
X00679Y06279*
X00674Y06272*
X00671Y06265*
X00693*
Y06287*
G37*
G36*
X00736Y06245D02*
X00713D01*
Y06222*
X00721Y06225*
X00728Y0623*
X00733Y06237*
X00736Y06245*
G37*
G36*
X00693D02*
X00671D01*
X00674Y06237*
X00679Y0623*
X00686Y06225*
X00693Y06222*
Y06245*
G37*
G36*
X0248Y06183D02*
X02469Y06182D01*
X0246Y06178*
X02452Y06172*
X02446Y06164*
X02442Y06155*
X02441Y06145*
X02442Y06134*
X02446Y06125*
X02452Y06117*
X0246Y06111*
X02469Y06107*
X0248Y06106*
X0249Y06107*
X02499Y06111*
X02507Y06117*
X02513Y06125*
X02517Y06134*
X02518Y06145*
X02517Y06155*
X02513Y06164*
X02507Y06172*
X02499Y06178*
X0249Y06182*
X0248Y06183*
G37*
G36*
X02572Y06081D02*
X02559Y0608D01*
X02546Y06074*
X02535Y06066*
X02527Y06055*
X02522Y06043*
X0252Y0603*
X02522Y06016*
X02527Y06004*
X02535Y05993*
X02546Y05985*
X02559Y05979*
X02572Y05978*
X02585Y05979*
X02598Y05985*
X02609Y05993*
X02617Y06004*
X02622Y06016*
X02624Y0603*
X02622Y06043*
X02617Y06055*
X02609Y06066*
X02598Y06074*
X02585Y0608*
X02572Y06081*
G37*
G36*
X0229Y0591D02*
Y059D01*
X023*
X02296Y05906*
X0229Y0591*
G37*
G36*
X023Y0588D02*
X0229D01*
Y05869*
X02296Y05873*
X023Y0588*
G37*
G36*
X0224Y05912D02*
X02232Y05911D01*
X02226Y05909*
X02224Y05907*
X02125*
X02117Y05906*
X02111Y05904*
X02105Y05899*
X021Y05893*
X02098Y05887*
X02097Y0588*
X02098Y05872*
X021Y05866*
X02105Y0586*
X02111Y05855*
X02117Y05853*
X02125Y05852*
X02235*
X02242Y05853*
X02248Y05855*
X02254Y0586*
X02259Y05865*
X02264Y05871*
X02266Y05871*
X0227Y05869*
Y0589*
Y0591*
X02263Y05906*
X02257Y05906*
X02253Y05909*
X02247Y05911*
X0224Y05912*
G37*
G36*
X01666Y05894D02*
X01653Y05892D01*
X0164Y05888*
X01628Y05882*
X01617Y05873*
X01609Y05863*
X01602Y05851*
X01598Y05838*
X01597Y05825*
X01598Y05811*
X01602Y05798*
X01609Y05786*
X01617Y05776*
X01628Y05767*
X0164Y05761*
X01653Y05757*
X01666Y05755*
X0168Y05757*
X01693Y05761*
X01705Y05767*
X01715Y05776*
X01724Y05786*
X0173Y05798*
X01734Y05811*
X01735Y05825*
X01734Y05838*
X0173Y05851*
X01724Y05863*
X01715Y05873*
X01705Y05882*
X01693Y05888*
X0168Y05892*
X01666Y05894*
G37*
G36*
Y05728D02*
X01652Y05726D01*
X0164Y05721*
X01629Y05712*
X0162Y05701*
X01615Y05689*
X01613Y05675*
X01615Y05661*
X0162Y05648*
X01629Y05637*
X0164Y05629*
X01652Y05624*
X01666Y05622*
X0168Y05624*
X01693Y05629*
X01704Y05637*
X01712Y05648*
X01717Y05661*
X01719Y05675*
X01717Y05689*
X01712Y05701*
X01704Y05712*
X01693Y05721*
X0168Y05726*
X01666Y05728*
G37*
G36*
Y05578D02*
X01652Y05577D01*
X0164Y05571*
X01629Y05563*
X0162Y05552*
X01615Y05539*
X01613Y05525*
X01615Y05512*
X0162Y05499*
X01629Y05488*
X0164Y05479*
X01652Y05474*
X01666Y05472*
X0168Y05474*
X01693Y05479*
X01704Y05488*
X01712Y05499*
X01717Y05512*
X01719Y05525*
X01717Y05539*
X01712Y05552*
X01704Y05563*
X01693Y05571*
X0168Y05577*
X01666Y05578*
G37*
G36*
X01975Y05717D02*
X01967Y05716D01*
X01961Y05714*
X01955Y05709*
X0195Y05703*
X01948Y05697*
X01947Y0569*
Y055*
X01948Y05492*
X0195Y05486*
X01955Y0548*
X01961Y05475*
X01967Y05473*
X01975Y05472*
X01982Y05473*
X01988Y05475*
X01994Y0548*
X01999Y05486*
X02001Y05492*
X02002Y055*
Y0569*
X02001Y05697*
X01999Y05703*
X01994Y05709*
X01988Y05714*
X01982Y05716*
X01975Y05717*
G37*
G36*
X0248Y05338D02*
X02469Y05337D01*
X0246Y05333*
X02452Y05327*
X02446Y05319*
X02442Y0531*
X02441Y05299*
X02442Y05289*
X02446Y0528*
X02452Y05272*
X0246Y05266*
X02469Y05262*
X0248Y05261*
X0249Y05262*
X02499Y05266*
X02507Y05272*
X02513Y0528*
X02517Y05289*
X02518Y05299*
X02517Y0531*
X02513Y05319*
X02507Y05327*
X02499Y05333*
X0249Y05337*
X0248Y05338*
G37*
G36*
X02572Y05236D02*
X02559Y05235D01*
X02546Y05229*
X02535Y05221*
X02527Y0521*
X02522Y05198*
X0252Y05185*
X02522Y05171*
X02527Y05159*
X02535Y05148*
X02546Y0514*
X02559Y05134*
X02572Y05133*
X02585Y05134*
X02598Y0514*
X02609Y05148*
X02617Y05159*
X02622Y05171*
X02624Y05185*
X02622Y05198*
X02617Y0521*
X02609Y05221*
X02598Y05229*
X02585Y05235*
X02572Y05236*
G37*
G36*
X02308Y04707D02*
Y04685D01*
X02331*
X02328Y04692*
X02323Y04699*
X02316Y04704*
X02308Y04707*
G37*
G36*
X02288D02*
X02281Y04704D01*
X02274Y04699*
X02269Y04692*
X02266Y04685*
X02288*
Y04707*
G37*
G36*
X02331Y04665D02*
X02308D01*
Y04642*
X02316Y04645*
X02323Y0465*
X02328Y04657*
X02331Y04665*
G37*
G36*
X02288D02*
X02266D01*
X02269Y04657*
X02274Y0465*
X02281Y04645*
X02288Y04642*
Y04665*
G37*
%LNchassispowerdistribution_b_1.0_rw-3*%
%LPD*%
G54D54*
X02495Y006D03*
X02545Y0065D03*
X02495D03*
X02545Y007D03*
X02495D03*
X02545Y0075D03*
X02495D03*
X02545Y008D03*
X02495D03*
G54D79*
X01795Y00745D02*
X018Y0075D01*
X0161Y00745D02*
X01795D01*
X02343Y01443D02*
Y01791D01*
X02362Y01417D02*
Y02902D01*
X02381Y01391D02*
Y04003D01*
X02365Y01375D02*
X02381Y01391D01*
X02315Y0407D02*
X02381Y04003D01*
X0232Y01375D02*
X02362Y01417D01*
X0232Y02945D02*
X02362Y02902D01*
X0227Y0137D02*
X02343Y01443D01*
X0232Y01815D02*
X02343Y01791D01*
X00839Y01788D02*
X012Y01428D01*
X00839Y01788D02*
Y01815D01*
X00915Y01754D02*
X0125Y01419D01*
X00915Y01754D02*
Y018D01*
X0125Y01415D02*
Y01419D01*
X0099Y01715D02*
Y02817D01*
Y01715D02*
X01305Y014D01*
X01062Y01682D02*
X0136Y01385D01*
X01062Y01682D02*
Y01765D01*
X0136Y01385D02*
D01*
X0099Y02817D02*
X01062Y0289D01*
X02365Y0584D02*
X0241Y05795D01*
Y0138D02*
Y05795D01*
X01608Y00746D02*
X0161Y00745D01*
X0227Y01365D02*
Y0137D01*
X0232D02*
Y01375D01*
X0192Y00475D02*
Y0062D01*
Y00475D02*
X0195Y00445D01*
X00915Y018D02*
D01*
X00568Y05525D02*
X00844Y05248D01*
X00839Y01815D02*
X00844Y05248D01*
X00915Y03867D02*
X01062Y04015D01*
X00915Y018D02*
Y03867D01*
G54D80*
X02034Y01475D02*
Y02665D01*
Y0383D02*
Y05307D01*
Y02665D02*
Y0383D01*
Y05307D02*
X0225Y05522D01*
X0231Y0154D02*
Y0162D01*
Y0154D02*
X02315Y01535D01*
X0152Y01075D02*
X01715D01*
X01975Y0025D02*
Y003D01*
X0211Y00435*
X02203Y00595D02*
X02275Y00667D01*
X0211Y00595D02*
X02203D01*
X0211Y00435D02*
Y00595D01*
X02034Y01475D02*
X02255D01*
X02034Y01314D02*
Y01475D01*
X02039Y02665D02*
X02175D01*
X02039Y0383D02*
X0218D01*
X00232Y00207D02*
X00392D01*
X00395Y0021*
X00775Y01335D02*
X0163D01*
X01632Y01332*
X00335Y01235D02*
X00605Y01505D01*
X00775Y01335*
X00895Y01215*
X00865Y0064D02*
X00895Y0067D01*
X00833Y00608D02*
X00865Y0064D01*
X00813Y00608D02*
X00833D01*
X0071Y00665D02*
Y00695D01*
Y00665D02*
X00765Y0061D01*
X00895Y0067D02*
Y01215D01*
X02225Y0199D02*
X0228D01*
X0216Y01815D02*
X0224D01*
X02225Y03135D02*
X0228D01*
X0216Y02945D02*
X0224D01*
X02155Y0407D02*
X02235D01*
X0222Y0424D02*
X02275D01*
X02125Y0588D02*
X02235D01*
X0224Y05885*
X02688Y0589D02*
X02828Y0603D01*
X0228Y0589D02*
X02688D01*
X00335Y03015D02*
Y03412D01*
X01975Y055D02*
Y0569D01*
X0225Y05522D02*
Y05585D01*
X0237Y0559D02*
Y0574D01*
X0058Y0648D02*
X0108D01*
X02265Y00605D02*
X0228D01*
X02322Y00562*
X00335Y0414D02*
Y04537D01*
X00562Y04765*
X00335Y03412D02*
X00562Y0364D01*
X00335Y0189D02*
Y02287D01*
X00562Y02515*
X0228Y0199D02*
Y02084D01*
Y01815D02*
Y0199D01*
Y02084D02*
X02298Y02103D01*
Y02415*
X0228Y03135D02*
Y03219D01*
Y02945D02*
Y03135D01*
Y03219D02*
X02298Y03238D01*
Y03555*
X02275Y0424D02*
Y04337D01*
Y0407D02*
Y0424D01*
Y04337D02*
X02298Y04361D01*
Y04675*
X02275Y00667D02*
X02283D01*
X02416Y00922D02*
X02828Y01335D01*
X02283Y00922D02*
X02416D01*
X02283Y00667D02*
Y00922D01*
X01312Y01765D02*
X01937D01*
X01312Y0289D02*
X01937D01*
X01312Y04015D02*
X01937D01*
X02322Y00562D02*
X02347D01*
X01945Y01225D02*
X02034Y01314D01*
X0196Y01095D02*
X02165D01*
G54D81*
X00476Y073D03*
X0077D03*
X00475Y06795D03*
X00769D03*
G54D82*
X00085Y07485D03*
X0122Y00145D03*
X0285D03*
X03015Y07485D03*
X003Y00258D03*
Y0014D03*
X00181Y00258D03*
Y0014D03*
X003Y00765D03*
Y00646D03*
X00181Y00765D03*
Y00646D03*
G54D83*
X01937Y0364D03*
Y0289D03*
X01312D03*
X01187D03*
X01062D03*
X00562D03*
X01937Y02515D03*
Y01765D03*
X01312D03*
X01187D03*
X01062D03*
X00562D03*
Y04015D03*
X01062D03*
X01187D03*
X01312D03*
X01937D03*
Y04765D03*
G54D84*
X00562Y0364D03*
Y02515D03*
Y04765D03*
G54D85*
X02298Y04675D03*
Y02415D03*
Y03555D03*
X00703Y06255D03*
G54D86*
X02161Y04675D03*
Y02415D03*
Y03555D03*
X00566Y06255D03*
G54D87*
X02828Y06875D03*
X02572D03*
X02828Y06455D03*
X02572D03*
X02828Y0603D03*
X02572D03*
X02828Y05185D03*
X02572D03*
X02828Y04765D03*
X02572D03*
X02828Y0434D03*
X02572D03*
X02828Y03895D03*
X02572D03*
X02828Y03465D03*
X02572D03*
X02828Y03045D03*
X02572D03*
X02828Y0262D03*
X02572D03*
X02828Y0218D03*
X02572D03*
X02828Y0176D03*
X02572D03*
X02828Y01335D03*
X02572D03*
G54D88*
X02545Y006D03*
G54D89*
X02106Y00667D03*
Y00922D03*
X02283Y00667D03*
Y00922D03*
G54D90*
X00568Y05825D03*
G54D91*
X00568Y05525D03*
Y05226D03*
X01666Y05525D03*
Y05675D03*
G54D92*
X01666Y05226D03*
Y05825D03*
G54D93*
X018Y0075D03*
X0231Y0162D03*
X01715Y01075D03*
X01975Y0025D03*
X0211Y00595D03*
X02315Y01535D03*
X02255Y01475D03*
X02175Y02665D03*
X0218Y0383D03*
X00395Y0021D03*
X00232Y00207D03*
X012Y01428D03*
X0125Y01415D03*
X01305Y014D03*
X0136Y01385D03*
X00605Y01505D03*
X00335Y01235D03*
X01632Y01332D03*
X00813Y00608D03*
X00865Y0064D03*
X00765Y0061D03*
X0071Y00695D03*
X00895Y01215D03*
X02225Y0199D03*
X0232Y01815D03*
X0228D03*
X0216D03*
X0224D03*
X02225Y03135D03*
X0232Y02945D03*
X0228D03*
X0216D03*
X0224D03*
X02315Y0407D03*
X02275D03*
X02155D03*
X02235D03*
X0222Y0424D03*
X02125Y0588D03*
X0224Y05885D03*
X0228Y0589D03*
X00335Y0189D03*
Y03015D03*
Y0414D03*
X01975Y055D03*
Y0569D03*
X0225Y05585D03*
X0237Y0574D03*
Y0559D03*
X02365Y0584D03*
X0058Y0648D03*
X0108D03*
X01608Y00746D03*
X0196Y01095D03*
X0227Y01365D03*
X0232Y0137D03*
X0241Y0138D03*
X02365Y01375D03*
X02265Y00605D03*
X0192Y0062D03*
X0195Y00445D03*
X0152Y01075D03*
X02165Y01095D03*
X01945Y01225D03*
X02347Y00562D03*
M02*