%FSTAX23Y23*%
%MOIN*%
%SFA1B1*%

%IPPOS*%
%AMD23*
4,1,8,0.008900,0.015700,-0.008900,0.015700,-0.010800,0.013800,-0.010800,-0.013800,-0.008900,-0.015700,0.008900,-0.015700,0.010800,-0.013800,0.010800,0.013800,0.008900,0.015700,0.0*
1,1,0.003900,0.008900,0.013800*
1,1,0.003900,-0.008900,0.013800*
1,1,0.003900,-0.008900,-0.013800*
1,1,0.003900,0.008900,-0.013800*
%
%AMD24*
4,1,8,0.008900,0.015500,-0.008900,0.015500,-0.010800,0.013500,-0.010800,-0.013500,-0.008900,-0.015500,0.008900,-0.015500,0.010800,-0.013500,0.010800,0.013500,0.008900,0.015500,0.0*
1,1,0.003900,0.008900,0.013500*
1,1,0.003900,-0.008900,0.013500*
1,1,0.003900,-0.008900,-0.013500*
1,1,0.003900,0.008900,-0.013500*
%
%ADD19R,0.041340X0.055120*%
%ADD20R,0.042000X0.053150*%
%ADD21R,0.053150X0.042000*%
%ADD22R,0.053150X0.043000*%
G04~CAMADD=23~8~0.0~0.0~216.5~315.0~19.5~0.0~15~0.0~0.0~0.0~0.0~0~0.0~0.0~0.0~0.0~0~0.0~0.0~0.0~0.0~216.5~315.0*
%ADD23D23*%
G04~CAMADD=24~8~0.0~0.0~216.5~310.0~19.5~0.0~15~0.0~0.0~0.0~0.0~0~0.0~0.0~0.0~0.0~0~0.0~0.0~0.0~0.0~216.5~310.0*
%ADD24D24*%
%ADD25R,0.061020X0.053150*%
%ADD26R,0.057090X0.045280*%
%ADD27R,0.011810X0.061020*%
%ADD28R,0.061020X0.011810*%
%ADD29R,0.214570X0.259840*%
%ADD30R,0.023620X0.059060*%
%ADD31R,0.035430X0.062990*%
%ADD32C,0.032000*%
%ADD33R,0.047240X0.047240*%
%ADD34R,0.047240X0.047240*%
%ADD35R,0.053150X0.037400*%
%ADD36R,0.037400X0.053150*%
%ADD37R,0.047240X0.057090*%
%ADD38R,0.053150X0.061020*%
%ADD39R,0.051180X0.082680*%
%ADD40R,0.039370X0.053150*%
%ADD41R,0.053150X0.021650*%
%ADD54C,0.040000*%
%ADD79C,0.011000*%
%ADD80C,0.025000*%
%ADD81O,0.099000X0.263000*%
%ADD82C,0.060000*%
%ADD83C,0.074800*%
%ADD84R,0.074800X0.074800*%
%ADD85C,0.048420*%
%ADD86R,0.048420X0.048420*%
%ADD87C,0.072840*%
%ADD88R,0.040000X0.040000*%
%ADD89C,0.058980*%
%ADD90R,0.075240X0.075240*%
%ADD91C,0.075240*%
%ADD92C,0.107720*%
%ADD93C,0.025000*%
%LNchassispowerdistribution_b_1.0_rw-1*%
%LPD*%
G36*
X00625Y0753D02*
Y05745D01*
X00455*
Y0407*
X00635*
Y0396*
X00455*
Y0295*
X00635*
Y0283*
X00455*
Y0182*
X00635*
Y01705*
X00455*
Y01125*
X00555*
Y01025*
X00025*
Y07427*
X00027Y07428*
X0003Y07429*
X00041Y07419*
X00055Y07412*
X00069Y07408*
X00085Y07406*
X001Y07408*
X00114Y07412*
X00128Y07419*
X0014Y07429*
X0015Y07441*
X00157Y07455*
X00161Y07469*
X00163Y07485*
X00161Y075*
X00157Y07514*
X00152Y07525*
X00155Y0753*
X00625*
G37*
G36*
X02675Y05625D02*
X02055D01*
Y05779*
X02081*
X02086Y05777*
Y05764*
X02163*
Y0578*
X0218*
Y05799*
X0218Y058*
Y0699*
X02185Y06995*
X02437*
X02441Y06991*
X02441Y06989*
X02442Y06979*
X02446Y0697*
X02452Y06962*
X0246Y06956*
X02469Y06952*
X0248Y06951*
X0249Y06952*
X02499Y06956*
X02507Y06962*
X02513Y0697*
X02517Y06979*
X02518Y06989*
X02518Y06991*
X02522Y06995*
X02675*
Y05625*
G37*
G36*
X0217Y06995D02*
Y058D01*
X02165Y05797*
X02163Y05797*
Y05813*
X02086*
Y05792*
X02081*
Y0579*
X02045*
Y05625*
X016*
Y06995*
X0217*
G37*
G36*
X02225Y0469D02*
Y04625D01*
X02175*
Y04278*
X02122*
Y04211*
X02122Y04211*
X02117Y04214*
Y04278*
X0204*
Y04201*
X02044*
Y04128*
X02114*
Y04197*
X02115Y04197*
X0212Y04194*
Y0418*
X0215*
Y0417*
X0216*
Y04133*
X02175*
Y04088*
X0217Y04087*
X02165Y0409*
Y0407*
Y04049*
X0217Y04052*
X02175Y04051*
Y04028*
X02165*
Y03991*
X02155*
Y03981*
X02114*
Y0396*
X01285*
Y041*
X0187Y04685*
X0211*
Y04725*
X02225*
Y0469*
G37*
G36*
X02675Y02525D02*
X02375D01*
Y02715*
X02345*
Y02799*
X02344Y02806*
X02343Y02808*
Y02813*
X02342Y0282*
X02338Y02825*
X02332Y02829*
X02326Y0283*
X02308*
X02301Y02829*
X02296Y02825*
X02292Y0282*
X02291Y02813*
Y02808*
X0229Y02806*
X02289Y02799*
Y02715*
X02105*
Y02819*
X02121*
Y028*
X02198*
Y0282*
X02218*
X02221Y02815*
X02221Y02813*
Y02809*
X02232*
Y02825*
X0223Y02825*
X02226Y02826*
X02225Y02828*
Y02866*
X0223Y0287*
X02233Y02869*
X02251*
X02258Y0287*
X02261Y02872*
X02264Y0287*
X02271Y02869*
X02288*
X02295Y0287*
X02298Y02872*
X02301Y0287*
X02308Y02869*
X02325*
X02332Y0287*
X02338Y02874*
X02341Y02879*
X02343Y02886*
Y02891*
X02343Y02893*
X02344Y029*
Y02932*
X02346Y02937*
X02347Y02945*
X02346Y02952*
X02344Y02958*
X02339Y02964*
X02333Y02969*
X02327Y02971*
X0232Y02972*
X02312Y02971*
X02306Y02969*
X02303Y02967*
X02299Y02964*
X02293Y02969*
X02287Y02971*
X0228Y02972*
X02272Y02971*
X02266Y02969*
X0226Y02964*
X02256Y02967*
X02253Y02969*
X02247Y02971*
X0224Y02972*
X02232Y02971*
X0223Y0297*
X02227Y02971*
X02225Y02973*
Y03107*
X02232Y03108*
X02238Y0311*
X02244Y03115*
X02249Y03121*
X02251Y03127*
X02252Y03135*
X02251Y03142*
X02249Y03148*
X02244Y03154*
X02238Y03159*
X02232Y03161*
X02225Y03162*
Y03475*
X02375*
Y0385*
X02475*
Y03967*
X02478Y03971*
X0248Y03971*
X0249Y03972*
X02499Y03976*
X02507Y03982*
X02513Y0399*
X02517Y03999*
X02518Y04009*
X02517Y0402*
X02517Y0402*
X0252Y04025*
X02675*
Y02525*
G37*
G36*
Y0405D02*
X0244D01*
Y0387*
X0234*
Y03924*
X02339Y03931*
X02338Y03933*
Y03938*
X02337Y03945*
X02333Y0395*
X02327Y03954*
X02321Y03955*
X02303*
X02296Y03954*
X02291Y0395*
X02287Y03945*
X02286Y03938*
Y03933*
X02285Y03931*
X02284Y03924*
Y0387*
X02105*
Y03945*
X02114*
Y03925*
X02195*
Y03945*
X022*
Y0395*
X022*
Y04033*
X022*
Y04212*
X0222*
X02227Y04213*
X02233Y04215*
X02239Y0422*
X02244Y04226*
X02246Y04232*
X02247Y0424*
X02246Y04247*
X02244Y04253*
X02239Y04259*
X02233Y04264*
X02227Y04266*
X0222Y04267*
X022*
Y046*
X02375*
Y0556*
X02381Y05563*
X02387Y05567*
X02389Y0557*
X02394Y05576*
X02396Y05582*
X02397Y0559*
X02397Y05595*
X024Y056*
X02675*
Y0405*
G37*
G36*
X02225Y0361D02*
Y0357D01*
Y035*
X022*
Y03178*
X02199Y03173*
X02122*
Y03111*
X02117Y03108*
X02117Y03108*
Y03173*
X0204*
Y03096*
X02042*
Y03016*
X02119*
Y03089*
X02124Y03092*
X02125Y03092*
Y0307*
X02159*
X02192*
Y03096*
X02199*
X022Y03091*
Y02895*
X02198Y02891*
X0217*
Y02858*
X0216*
Y02848*
X02121*
Y0283*
X0129*
Y0298*
X01875Y03565*
X02095*
Y0361*
X02225*
G37*
G36*
Y0247D02*
Y0243D01*
Y0235*
X022*
Y02033*
X02199Y02028*
X02122*
Y01951*
X02117*
Y02028*
X0204*
Y01951*
X02045*
Y01873*
X02113*
Y01878*
X0213*
Y01915*
X0214*
Y01925*
X02169*
Y01951*
X02199*
X022Y01946*
Y01774*
X0217*
Y01738*
X0216*
Y01728*
X02119*
Y01705*
X0129*
Y0185*
X0187Y0243*
X02095*
Y0247*
X02225*
G37*
G36*
X02675Y0125D02*
X02475D01*
Y01407*
X02478Y01411*
X0248Y01411*
X0249Y01412*
X02499Y01416*
X02507Y01422*
X02513Y0143*
X02517Y01439*
X02518Y0145*
X02517Y0146*
X02513Y01469*
X02507Y01477*
X02499Y01483*
X0249Y01487*
X0248Y01488*
X02478Y01488*
X02475Y01492*
Y0153*
X02342*
Y01535*
X02341Y01542*
X02339Y01548*
X02334Y01554*
X02328Y01559*
X02322Y01561*
X02315Y01562*
X02307Y01561*
X02301Y01559*
X02295Y01554*
X0229Y01548*
X02288Y01542*
X02287Y01535*
Y0153*
X0211*
Y01694*
X02119*
Y01671*
X022*
Y01696*
X02205*
Y017*
X02225*
Y01736*
X0223Y0174*
X02233Y01739*
X02251*
X02258Y0174*
X02261Y01742*
X02264Y0174*
X02271Y01739*
X02288*
X02295Y0174*
X02298Y01742*
X02301Y0174*
X02308Y01739*
X02325*
X02332Y0174*
X02338Y01744*
X02341Y01749*
X02343Y01756*
Y01761*
X02343Y01763*
X02344Y0177*
Y01802*
X02346Y01807*
X02347Y01815*
X02346Y01822*
X02344Y01828*
X02339Y01834*
X02333Y01839*
X02327Y01841*
X0232Y01842*
X02312Y01841*
X02306Y01839*
X02303Y01837*
X02299Y01834*
X02293Y01839*
X02287Y01841*
X0228Y01842*
X02272Y01841*
X02266Y01839*
X0226Y01834*
X02256Y01837*
X02253Y01839*
X02247Y01841*
X0224Y01842*
X02232Y01841*
X0223Y0184*
X02227Y01841*
X02225Y01843*
Y01962*
X02232Y01963*
X02238Y01965*
X02244Y0197*
X02249Y01976*
X02251Y01982*
X02252Y0199*
X02251Y01997*
X02249Y02003*
X02244Y02009*
X02238Y02014*
X02232Y02016*
X02225Y02017*
Y02325*
X02375*
X0238Y0233*
Y025*
X02675*
Y0125*
G37*
G36*
X02945Y0752D02*
X02942Y07514D01*
X02938Y075*
X02936Y07485*
X02938Y07469*
X02942Y07455*
X02949Y07441*
X02959Y07429*
X02971Y07419*
X02985Y07412*
X02999Y07408*
X03015Y07406*
X0303Y07408*
X03044Y07412*
X03045Y07412*
X0305Y0741*
Y0125*
X02725*
Y0702*
X02504*
X02499Y07023*
X0249Y07027*
X0248Y07028*
X02469Y07027*
X0246Y07023*
X02455Y0702*
X01575*
Y0535*
X01765*
Y05125*
X0235*
Y04625*
X0225*
Y0471*
Y0475*
X02085*
Y0471*
X0186*
X0126Y0411*
X01005*
Y038*
X0225*
X02256*
Y03794*
X02261*
Y03785*
X02334*
Y03794*
X02339*
Y038*
X0235*
Y037*
Y035*
X0225*
Y0359*
Y03635*
X0207*
Y0359*
X01865*
X01265Y0299*
X01005*
Y0263*
X0225*
X02253Y02633*
X02258Y02631*
Y02629*
X02263*
Y0262*
X02336*
Y02629*
X02341*
Y02635*
X0235*
Y02575*
Y0235*
X0225*
Y02495*
X0207*
Y02455*
X0186*
X01255Y0185*
X01005*
Y0117*
X00931*
Y01174*
X00858*
Y0117*
X0048*
Y0166*
X0066*
Y01845*
X0048*
Y02805*
X0066*
Y02975*
X0048*
Y03935*
X0066*
Y04095*
X0048*
Y053*
X0065*
Y07525*
X01005*
X02943*
X02945Y0752*
G37*
%LNchassispowerdistribution_b_1.0_rw-2*%
%LPC*%
G36*
X00287Y07292D02*
X00272Y0729D01*
X00258Y07286*
X00245Y07279*
X00234Y0727*
X00225Y07259*
X00218Y07246*
X00214Y07232*
X00212Y07218*
X00214Y07203*
X00218Y07189*
X00225Y07176*
X00234Y07165*
X00245Y07156*
X00258Y07149*
X00272Y07145*
X00287Y07143*
X00301Y07145*
X00315Y07149*
X00328Y07156*
X00339Y07165*
X00348Y07176*
X00355Y07189*
X00359Y07203*
X00361Y07218*
X00359Y07232*
X00355Y07246*
X00348Y07259*
X00339Y0727*
X00328Y07279*
X00315Y07286*
X00301Y0729*
X00287Y07292*
G37*
G36*
X00286Y06787D02*
X00271Y06785D01*
X00257Y06781*
X00244Y06774*
X00233Y06765*
X00224Y06754*
X00217Y06741*
X00213Y06727*
X00211Y06713*
X00213Y06698*
X00217Y06684*
X00224Y06671*
X00233Y0666*
X00244Y06651*
X00257Y06644*
X00271Y0664*
X00286Y06638*
X003Y0664*
X00314Y06644*
X00327Y06651*
X00338Y0666*
X00347Y06671*
X00354Y06684*
X00358Y06698*
X0036Y06713*
X00358Y06727*
X00354Y06741*
X00347Y06754*
X00338Y06765*
X00327Y06774*
X00314Y06781*
X003Y06785*
X00286Y06787*
G37*
G36*
X00479Y06518D02*
X00455D01*
Y0649*
X00479*
Y06518*
G37*
G36*
X00435D02*
X00412D01*
Y0649*
X00435*
Y06518*
G37*
G36*
X00479Y0647D02*
X00455D01*
Y06441*
X00479*
Y0647*
G37*
G36*
X00435D02*
X00412D01*
Y06441*
X00435*
Y0647*
G37*
G36*
X00562Y06523D02*
X00485D01*
Y06436*
X00562*
Y06452*
X0058*
X00587Y06453*
X00594Y06455*
X006Y0646*
X00604Y06466*
X00607Y06472*
X00608Y0648*
X00607Y06487*
X00604Y06493*
X006Y06499*
X00594Y06504*
X00587Y06506*
X0058Y06507*
X0058*
X00562*
Y06523*
G37*
G36*
X006Y06289D02*
X00576D01*
Y06265*
X006*
Y06289*
G37*
G36*
X00556D02*
X00531D01*
Y06265*
X00556*
Y06289*
G37*
G36*
X00275Y06274D02*
Y0626D01*
X00289*
X00287Y06263*
X00283Y06268*
X00278Y06272*
X00275Y06274*
G37*
G36*
X00255D02*
X00251Y06272D01*
X00246Y06268*
X00242Y06263*
X00241Y0626*
X00255*
Y06274*
G37*
G36*
X00289Y0624D02*
X00275D01*
Y06226*
X00278Y06227*
X00283Y06231*
X00287Y06236*
X00289Y0624*
G37*
G36*
X00255D02*
X00241D01*
X00242Y06236*
X00246Y06231*
X00251Y06227*
X00255Y06226*
Y0624*
G37*
G36*
X006Y06245D02*
X00576D01*
Y0622*
X006*
Y06245*
G37*
G36*
X00556D02*
X00531D01*
Y0622*
X00556*
Y06245*
G37*
G36*
X00335Y04167D02*
X00327Y04166D01*
X00321Y04164*
X00315Y04159*
X0031Y04153*
X00308Y04147*
X00307Y0414*
Y04119*
X00293*
Y04067*
X00325*
X00327Y04066*
X00335Y04065*
X00342Y04066*
X00344Y04067*
X00376*
Y04119*
X00362*
Y0414*
X00361Y04147*
X00359Y04153*
X00354Y04159*
X00348Y04164*
X00342Y04166*
X00335Y04167*
G37*
G36*
X00371Y04037D02*
X00345D01*
Y04026*
X00371*
Y04037*
G37*
G36*
X00325D02*
X00298D01*
Y04026*
X00325*
Y04037*
G37*
G36*
X00371Y04006D02*
X00345D01*
Y03995*
X00371*
Y04006*
G37*
G36*
X00325D02*
X00298D01*
Y03995*
X00325*
Y04006*
G37*
G36*
X00335Y03042D02*
X00327Y03041D01*
X00321Y03039*
X00315Y03034*
X0031Y03028*
X00308Y03022*
X00307Y03015*
Y02994*
X00293*
Y02942*
X00325*
X00327Y02941*
X00335Y0294*
X00342Y02941*
X00344Y02942*
X00376*
Y02994*
X00362*
Y03015*
X00361Y03022*
X00359Y03028*
X00354Y03034*
X00348Y03039*
X00342Y03041*
X00335Y03042*
G37*
G36*
X00371Y02912D02*
X00345D01*
Y02901*
X00371*
Y02912*
G37*
G36*
X00325D02*
X00298D01*
Y02901*
X00325*
Y02912*
G37*
G36*
X00371Y02881D02*
X00345D01*
Y0287*
X00371*
Y02881*
G37*
G36*
X00325D02*
X00298D01*
Y0287*
X00325*
Y02881*
G37*
G36*
X00335Y01917D02*
X00327Y01916D01*
X00321Y01914*
X00315Y01909*
X0031Y01903*
X00308Y01897*
X00307Y0189*
Y01869*
X00293*
Y01817*
X00325*
X00327Y01816*
X00335Y01815*
X00342Y01816*
X00344Y01817*
X00376*
Y01869*
X00362*
Y0189*
X00361Y01897*
X00359Y01903*
X00354Y01909*
X00348Y01914*
X00342Y01916*
X00335Y01917*
G37*
G36*
X00371Y01787D02*
X00345D01*
Y01776*
X00371*
Y01787*
G37*
G36*
X00325D02*
X00298D01*
Y01776*
X00325*
Y01787*
G37*
G36*
X00371Y01756D02*
X00345D01*
Y01745*
X00371*
Y01756*
G37*
G36*
X00325D02*
X00298D01*
Y01745*
X00325*
Y01756*
G37*
G36*
X00335Y01262D02*
X00327Y01261D01*
X00321Y01259*
X00315Y01254*
X0031Y01248*
X00308Y01242*
X00307Y01235*
Y01179*
X00293*
Y01127*
X00325*
X00327Y01126*
X00335Y01125*
X00342Y01126*
X00344Y01127*
X00376*
Y01179*
X00362*
Y01235*
X00361Y01242*
X00359Y01248*
X00354Y01254*
X00348Y01259*
X00342Y01261*
X00335Y01262*
G37*
G36*
X00371Y01097D02*
X00345D01*
Y01086*
X00371*
Y01097*
G37*
G36*
X00325D02*
X00298D01*
Y01086*
X00325*
Y01097*
G37*
G36*
X00371Y01066D02*
X00345D01*
Y01055*
X00371*
Y01066*
G37*
G36*
X00325D02*
X00298D01*
Y01055*
X00325*
Y01066*
G37*
G36*
X0248Y06608D02*
X02469Y06607D01*
X0246Y06603*
X02452Y06597*
X02446Y06589*
X02442Y0658*
X02441Y06569*
X02442Y06559*
X02446Y0655*
X02452Y06542*
X0246Y06536*
X02469Y06532*
X0248Y06531*
X0249Y06532*
X02499Y06536*
X02507Y06542*
X02513Y0655*
X02517Y06559*
X02518Y06569*
X02517Y0658*
X02513Y06589*
X02507Y06597*
X02499Y06603*
X0249Y06607*
X0248Y06608*
G37*
G36*
Y06183D02*
X02469Y06182D01*
X0246Y06178*
X02452Y06172*
X02446Y06164*
X02442Y06155*
X02441Y06145*
X02442Y06134*
X02446Y06125*
X02452Y06117*
X0246Y06111*
X02469Y06107*
X0248Y06106*
X0249Y06107*
X02499Y06111*
X02507Y06117*
X02513Y06125*
X02517Y06134*
X02518Y06145*
X02517Y06155*
X02513Y06164*
X02507Y06172*
X02499Y06178*
X0249Y06182*
X0248Y06183*
G37*
G36*
X0228Y05917D02*
X02272Y05916D01*
X02266Y05914*
X0226Y05909*
X02257Y05906*
X02253Y05909*
X02247Y05911*
X0224Y05912*
X02232Y05911*
X02226Y05909*
X0222Y05904*
X02215Y05898*
X02213Y05892*
X02212Y05885*
X02213Y05877*
X02215Y05871*
X02217Y05869*
Y05856*
X02216Y05853*
Y05848*
X02215Y05847*
X02214Y0584*
X02215Y05833*
X02216Y05831*
Y05826*
X02217Y0582*
X02221Y05814*
X02227Y0581*
X02233Y05809*
X02251*
X02258Y0581*
X02261Y05812*
X02264Y0581*
X02271Y05809*
X02288*
X02295Y0581*
X02298Y05812*
X02301Y0581*
X02308Y05809*
X02325*
X02332Y0581*
X02335Y05812*
X02365*
X02372Y05813*
X02378Y05815*
X02384Y0582*
X02389Y05826*
X02391Y05832*
X02392Y0584*
X02391Y05847*
X02389Y05853*
X02384Y05859*
X02378Y05864*
X02372Y05866*
X02365Y05867*
X02335*
X02332Y05869*
X02325Y05871*
X02308*
X02307Y05871*
Y0589*
X02306Y05897*
X02304Y05903*
X02299Y05909*
X02293Y05914*
X02287Y05916*
X0228Y05917*
G37*
G36*
X02252Y05765D02*
Y05749D01*
X02263*
Y05753*
X02262Y05758*
X0226Y05762*
X02256Y05764*
X02252Y05765*
G37*
G36*
X02232D02*
X02229Y05764D01*
X02225Y05762*
X02222Y05758*
X02221Y05753*
Y05749*
X02232*
Y05765*
G37*
G36*
X02163Y05744D02*
X02135D01*
Y05722*
X02163*
Y05744*
G37*
G36*
X02115D02*
X02086D01*
Y05722*
X02115*
Y05744*
G37*
G36*
X02263Y05729D02*
X02252D01*
Y05714*
X02256Y05714*
X0226Y05717*
X02262Y05721*
X02263Y05726*
Y05729*
G37*
G36*
X02232D02*
X02221D01*
Y05726*
X02222Y05721*
X02225Y05717*
X02229Y05714*
X02232Y05714*
Y05729*
G37*
G36*
X02326Y0577D02*
X02308D01*
X02301Y05769*
X02296Y05765*
X02292Y0576*
X02291Y05753*
Y05748*
X0229Y05746*
X02289Y05739*
X0229Y05732*
X02291Y05731*
Y05726*
X02292Y05719*
X02296Y05713*
X02301Y0571*
X02308Y05708*
X02326*
X02332Y0571*
X02336Y05712*
X0237*
X02377Y05713*
X02383Y05715*
X02389Y0572*
X02394Y05726*
X02396Y05732*
X02397Y0574*
X02396Y05747*
X02394Y05753*
X02389Y05759*
X02383Y05764*
X02377Y05766*
X0237Y05767*
X02335*
X02332Y05769*
X02326Y0577*
G37*
G36*
X02135Y059D02*
Y0589D01*
X02145*
X02141Y05896*
X02135Y059*
G37*
G36*
X02115D02*
X02108Y05896D01*
X02104Y0589*
X02115*
Y059*
G37*
G36*
X02014Y05863D02*
X01984D01*
Y05836*
X02014*
Y05863*
G37*
G36*
X01964D02*
X01933D01*
Y05836*
X01964*
Y05863*
G37*
G36*
X01845Y05849D02*
Y05835D01*
X01859*
X01857Y05838*
X01853Y05843*
X01848Y05847*
X01845Y05849*
G37*
G36*
X01825D02*
X01821Y05847D01*
X01816Y05843*
X01812Y05838*
X01811Y05835*
X01825*
Y05849*
G37*
G36*
X02145Y0587D02*
X02104D01*
X02108Y05863*
X02112Y05861*
X0211Y05856*
X02086*
Y05833*
X02163*
Y05856*
X02139*
X02137Y05861*
X02141Y05863*
X02145Y0587*
G37*
G36*
X01859Y05815D02*
X01845D01*
Y05801*
X01848Y05802*
X01853Y05806*
X01857Y05811*
X01859Y05815*
G37*
G36*
X01825D02*
X01811D01*
X01812Y05811*
X01816Y05806*
X01821Y05802*
X01825Y05801*
Y05815*
G37*
G36*
X02014Y05816D02*
X01933D01*
Y05791*
X01928*
Y05708*
X01946*
Y0569*
X01947Y05683*
X0195Y05676*
X01954Y0567*
X01955Y0567*
X01961Y05665*
X01967Y05663*
X01975Y05662*
X01982Y05663*
X01988Y05665*
X01994Y0567*
X01999Y05676*
X02001Y05682*
X02002Y0569*
X02002Y05694*
Y05708*
X02019*
Y05791*
X02014*
Y05816*
G37*
G36*
X02195Y04709D02*
X02171D01*
Y04685*
X02195*
Y04709*
G37*
G36*
X02151D02*
X02126D01*
Y04685*
X02151*
Y04709*
G37*
G36*
X02195Y04665D02*
X02171D01*
Y0464*
X02195*
Y04665*
G37*
G36*
X02151D02*
X02126D01*
Y0464*
X02151*
Y04665*
G37*
G36*
X02085Y04424D02*
Y0441D01*
X02099*
X02097Y04413*
X02093Y04418*
X02088Y04422*
X02085Y04424*
G37*
G36*
X02065D02*
X02061Y04422D01*
X02056Y04418*
X02052Y04413*
X02051Y0441*
X02065*
Y04424*
G37*
G36*
X02099Y0439D02*
X02085D01*
Y04376*
X02088Y04377*
X02093Y04381*
X02097Y04386*
X02099Y0439*
G37*
G36*
X02065D02*
X02051D01*
X02052Y04386*
X02056Y04381*
X02061Y04377*
X02065Y04376*
Y0439*
G37*
G36*
X0214Y0416D02*
X0212D01*
Y04133*
X0214*
Y0416*
G37*
G36*
X02145Y0409D02*
X02138Y04086D01*
X02134Y0408*
X02145*
Y0409*
G37*
G36*
Y0406D02*
X02134D01*
X02138Y04053*
X02145Y04049*
Y0406*
G37*
G36*
Y04028D02*
X02114D01*
Y04001*
X02145*
Y04028*
G37*
G36*
X0248Y03618D02*
X02469Y03617D01*
X0246Y03613*
X02452Y03607*
X02446Y03599*
X02442Y0359*
X02441Y03579*
X02442Y03569*
X02446Y0356*
X02452Y03552*
X0246Y03546*
X02469Y03542*
X0248Y03541*
X0249Y03542*
X02499Y03546*
X02507Y03552*
X02513Y0356*
X02517Y03569*
X02518Y03579*
X02517Y0359*
X02513Y03599*
X02507Y03607*
X02499Y03613*
X0249Y03617*
X0248Y03618*
G37*
G36*
Y03198D02*
X02469Y03197D01*
X0246Y03193*
X02452Y03187*
X02446Y03179*
X02442Y0317*
X02441Y03159*
X02442Y03149*
X02446Y0314*
X02452Y03132*
X0246Y03126*
X02469Y03122*
X0248Y03121*
X0249Y03122*
X02499Y03126*
X02507Y03132*
X02513Y0314*
X02517Y03149*
X02518Y03159*
X02517Y0317*
X02513Y03179*
X02507Y03187*
X02499Y03193*
X0249Y03197*
X0248Y03198*
G37*
G36*
X02252Y02825D02*
Y02809D01*
X02263*
Y02813*
X02262Y02818*
X0226Y02822*
X02256Y02824*
X02252Y02825*
G37*
G36*
X02263Y02789D02*
X02252D01*
Y02774*
X02256Y02774*
X0226Y02777*
X02262Y02781*
X02263Y02786*
Y02789*
G37*
G36*
X02232D02*
X02221D01*
Y02786*
X02222Y02781*
X02225Y02777*
X02229Y02774*
X02232Y02774*
Y02789*
G37*
G36*
X02198Y0278D02*
X0217D01*
Y02757*
X02198*
Y0278*
G37*
G36*
X0215D02*
X02121D01*
Y02757*
X0215*
Y0278*
G37*
G36*
X0248Y02773D02*
X02469Y02772D01*
X0246Y02768*
X02452Y02762*
X02446Y02754*
X02442Y02745*
X02441Y02735*
X02442Y02724*
X02446Y02715*
X02452Y02707*
X0246Y02701*
X02469Y02697*
X0248Y02696*
X0249Y02697*
X02499Y02701*
X02507Y02707*
X02513Y02715*
X02517Y02724*
X02518Y02735*
X02517Y02745*
X02513Y02754*
X02507Y02762*
X02499Y02768*
X0249Y02772*
X0248Y02773*
G37*
G36*
Y05338D02*
X02469Y05337D01*
X0246Y05333*
X02452Y05327*
X02446Y05319*
X02442Y0531*
X02441Y05299*
X02442Y05289*
X02446Y0528*
X02452Y05272*
X0246Y05266*
X02469Y05262*
X0248Y05261*
X0249Y05262*
X02499Y05266*
X02507Y05272*
X02513Y0528*
X02517Y05289*
X02518Y05299*
X02517Y0531*
X02513Y05319*
X02507Y05327*
X02499Y05333*
X0249Y05337*
X0248Y05338*
G37*
G36*
Y04918D02*
X02469Y04917D01*
X0246Y04913*
X02452Y04907*
X02446Y04899*
X02442Y0489*
X02441Y04879*
X02442Y04869*
X02446Y0486*
X02452Y04852*
X0246Y04846*
X02469Y04842*
X0248Y04841*
X0249Y04842*
X02499Y04846*
X02507Y04852*
X02513Y0486*
X02517Y04869*
X02518Y04879*
X02517Y0489*
X02513Y04899*
X02507Y04907*
X02499Y04913*
X0249Y04917*
X0248Y04918*
G37*
G36*
Y04493D02*
X02469Y04492D01*
X0246Y04488*
X02452Y04482*
X02446Y04474*
X02442Y04465*
X02441Y04455*
X02442Y04444*
X02446Y04435*
X02452Y04427*
X0246Y04421*
X02469Y04417*
X0248Y04416*
X0249Y04417*
X02499Y04421*
X02507Y04427*
X02513Y04435*
X02517Y04444*
X02518Y04455*
X02517Y04465*
X02513Y04474*
X02507Y04482*
X02499Y04488*
X0249Y04492*
X0248Y04493*
G37*
G36*
X02315Y04097D02*
X02307Y04096D01*
X02301Y04094*
X02295Y04089*
X02294*
X02288Y04094*
X02282Y04096*
X02275Y04097*
X02267Y04096*
X02261Y04094*
X02255Y04089*
X02251Y04092*
X02248Y04094*
X02242Y04096*
X02235Y04097*
X02227Y04096*
X02221Y04094*
X02215Y04089*
X0221Y04083*
X02208Y04077*
X02207Y0407*
X02208Y04062*
X02209Y04058*
Y04025*
X0221Y04018*
X02211Y04016*
Y04011*
X02212Y04005*
X02216Y03999*
X02222Y03995*
X02228Y03994*
X02246*
X02253Y03995*
X02256Y03997*
X02259Y03995*
X02266Y03994*
X02283*
X0229Y03995*
X02293Y03997*
X02296Y03995*
X02303Y03994*
X0232*
X02327Y03995*
X02333Y03999*
X02336Y04004*
X02338Y04011*
Y04016*
X02338Y04018*
X02339Y04025*
Y04057*
X02341Y04062*
X02342Y0407*
X02341Y04077*
X02339Y04083*
X02334Y04089*
X02328Y04094*
X02322Y04096*
X02315Y04097*
G37*
G36*
X02247Y0395D02*
Y03934D01*
X02258*
Y03938*
X02257Y03943*
X02255Y03947*
X02251Y03949*
X02247Y0395*
G37*
G36*
X02227D02*
X02224Y03949D01*
X0222Y03947*
X02217Y03943*
X02216Y03938*
Y03934*
X02227*
Y0395*
G37*
G36*
X02258Y03914D02*
X02247D01*
Y03899*
X02251Y03899*
X02255Y03902*
X02257Y03906*
X02258Y03911*
Y03914*
G37*
G36*
X02227D02*
X02216D01*
Y03911*
X02217Y03906*
X0222Y03902*
X02224Y03899*
X02227Y03899*
Y03914*
G37*
G36*
X02195Y03905D02*
X02165D01*
Y03878*
X02195*
Y03905*
G37*
G36*
X02145D02*
X02114D01*
Y03878*
X02145*
Y03905*
G37*
G36*
X02195Y03589D02*
X02171D01*
Y03565*
X02195*
Y03589*
G37*
G36*
X02151D02*
X02126D01*
Y03565*
X02151*
Y03589*
G37*
G36*
X02195Y03545D02*
X02171D01*
Y0352*
X02195*
Y03545*
G37*
G36*
X02151D02*
X02126D01*
Y0352*
X02151*
Y03545*
G37*
G36*
X02085Y03319D02*
Y03305D01*
X02099*
X02097Y03308*
X02093Y03313*
X02088Y03317*
X02085Y03319*
G37*
G36*
X02065D02*
X02061Y03317D01*
X02056Y03313*
X02052Y03308*
X02051Y03305*
X02065*
Y03319*
G37*
G36*
X02099Y03285D02*
X02085D01*
Y03271*
X02088Y03272*
X02093Y03276*
X02097Y03281*
X02099Y03285*
G37*
G36*
X02065D02*
X02051D01*
X02052Y03281*
X02056Y03276*
X02061Y03272*
X02065Y03271*
Y03285*
G37*
G36*
X02192Y0305D02*
X02169D01*
Y03021*
X02192*
Y0305*
G37*
G36*
X02149D02*
X02125D01*
Y03021*
X02149*
Y0305*
G37*
G36*
X0217Y02965D02*
Y02955D01*
X0218*
X02176Y02961*
X0217Y02965*
G37*
G36*
X0215D02*
X02143Y02961D01*
X02139Y02955*
X0215*
Y02965*
G37*
G36*
X0218Y02935D02*
X0217D01*
Y02924*
X02176Y02928*
X0218Y02935*
G37*
G36*
X0215D02*
X02139D01*
X02143Y02928*
X0215Y02924*
Y02935*
G37*
G36*
Y02891D02*
X02121D01*
Y02868*
X0215*
Y02891*
G37*
G36*
X02195Y02449D02*
X02171D01*
Y02425*
X02195*
Y02449*
G37*
G36*
X02151D02*
X02126D01*
Y02425*
X02151*
Y02449*
G37*
G36*
X02195Y02405D02*
X02171D01*
Y0238*
X02195*
Y02405*
G37*
G36*
X02151D02*
X02126D01*
Y0238*
X02151*
Y02405*
G37*
G36*
X0209Y02184D02*
Y0217D01*
X02104*
X02102Y02173*
X02098Y02178*
X02093Y02182*
X0209Y02184*
G37*
G36*
X0207D02*
X02066Y02182D01*
X02061Y02178*
X02057Y02173*
X02056Y0217*
X0207*
Y02184*
G37*
G36*
X02104Y0215D02*
X0209D01*
Y02136*
X02093Y02137*
X02098Y02141*
X02102Y02146*
X02104Y0215*
G37*
G36*
X0207D02*
X02056D01*
X02057Y02146*
X02061Y02141*
X02066Y02137*
X0207Y02136*
Y0215*
G37*
G36*
X02169Y01905D02*
X0215D01*
Y01878*
X02169*
Y01905*
G37*
G36*
X0217Y01835D02*
Y01825D01*
X0218*
X02176Y01831*
X0217Y01835*
G37*
G36*
X0215D02*
X02143Y01831D01*
X02139Y01825*
X0215*
Y01835*
G37*
G36*
X0218Y01805D02*
X0217D01*
Y01794*
X02176Y01798*
X0218Y01805*
G37*
G36*
X0215D02*
X02139D01*
X02143Y01798*
X0215Y01794*
Y01805*
G37*
G36*
Y01774D02*
X02119D01*
Y01748*
X0215*
Y01774*
G37*
G36*
X0248Y02333D02*
X02469Y02332D01*
X0246Y02328*
X02452Y02322*
X02446Y02314*
X02442Y02305*
X02441Y02294*
X02442Y02284*
X02446Y02275*
X02452Y02267*
X0246Y02261*
X02469Y02257*
X0248Y02256*
X0249Y02257*
X02499Y02261*
X02507Y02267*
X02513Y02275*
X02517Y02284*
X02518Y02294*
X02517Y02305*
X02513Y02314*
X02507Y02322*
X02499Y02328*
X0249Y02332*
X0248Y02333*
G37*
G36*
Y01913D02*
X02469Y01912D01*
X0246Y01908*
X02452Y01902*
X02446Y01894*
X02442Y01885*
X02441Y01874*
X02442Y01864*
X02446Y01855*
X02452Y01847*
X0246Y01841*
X02469Y01837*
X0248Y01836*
X0249Y01837*
X02499Y01841*
X02507Y01847*
X02513Y01855*
X02517Y01864*
X02518Y01874*
X02517Y01885*
X02513Y01894*
X02507Y01902*
X02499Y01908*
X0249Y01912*
X0248Y01913*
G37*
G36*
X02252Y01695D02*
Y01679D01*
X02263*
Y01683*
X02262Y01688*
X0226Y01692*
X02256Y01694*
X02252Y01695*
G37*
G36*
X02232D02*
X02229Y01694D01*
X02225Y01692*
X02222Y01688*
X02221Y01683*
Y01679*
X02232*
Y01695*
G37*
G36*
X02263Y01659D02*
X02252D01*
Y01644*
X02256Y01644*
X0226Y01647*
X02262Y01651*
X02263Y01656*
Y01659*
G37*
G36*
X02232D02*
X02221D01*
Y01656*
X02222Y01651*
X02225Y01647*
X02229Y01644*
X02232Y01644*
Y01659*
G37*
G36*
X022Y01651D02*
X0217D01*
Y01625*
X022*
Y01651*
G37*
G36*
X0215D02*
X02119D01*
Y01625*
X0215*
Y01651*
G37*
G36*
X02326Y017D02*
X02308D01*
X02301Y01699*
X02296Y01695*
X02292Y0169*
X02291Y01683*
Y01678*
X0229Y01676*
X02289Y01669*
Y01648*
X02285Y01643*
X02283Y01637*
X02282Y0163*
Y0162*
X02283Y01612*
X02285Y01606*
X0229Y016*
X02296Y01595*
X02302Y01593*
X0231Y01592*
X02317Y01593*
X02323Y01595*
X02329Y016*
X02334Y01606*
X02336Y01612*
X02337Y01618*
X02341Y01623*
X02344Y0163*
X02345Y01637*
Y01669*
X02344Y01676*
X02343Y01678*
Y01683*
X02342Y0169*
X02338Y01695*
X02332Y01699*
X02326Y017*
G37*
G36*
X00959Y07292D02*
X00944Y0729D01*
X0093Y07286*
X00917Y07279*
X00906Y0727*
X00897Y07259*
X0089Y07246*
X00886Y07232*
X00884Y07218*
X00886Y07203*
X0089Y07189*
X00897Y07176*
X00906Y07165*
X00917Y07156*
X0093Y07149*
X00944Y07145*
X00959Y07143*
X00973Y07145*
X00987Y07149*
X01Y07156*
X01011Y07165*
X0102Y07176*
X01027Y07189*
X01031Y07203*
X01033Y07218*
X01031Y07232*
X01027Y07246*
X0102Y07259*
X01011Y0727*
X01Y07279*
X00987Y07286*
X00973Y0729*
X00959Y07292*
G37*
G36*
X00958Y06787D02*
X00943Y06785D01*
X00929Y06781*
X00916Y06774*
X00905Y06765*
X00896Y06754*
X00889Y06741*
X00885Y06727*
X00883Y06713*
X00885Y06698*
X00889Y06684*
X00896Y06671*
X00905Y0666*
X00916Y06651*
X00929Y06644*
X00943Y0664*
X00958Y06638*
X00972Y0664*
X00986Y06644*
X00999Y06651*
X0101Y0666*
X01019Y06671*
X01026Y06684*
X0103Y06698*
X01032Y06713*
X0103Y06727*
X01026Y06741*
X01019Y06754*
X0101Y06765*
X00999Y06774*
X00986Y06781*
X00972Y06785*
X00958Y06787*
G37*
G36*
X01249Y06513D02*
X01226D01*
Y0649*
X01249*
Y06513*
G37*
G36*
X01206D02*
X01182D01*
Y0649*
X01206*
Y06513*
G37*
G36*
X01249Y0647D02*
X01226D01*
Y06446*
X01249*
Y0647*
G37*
G36*
X01206D02*
X01182D01*
Y06446*
X01206*
Y0647*
G37*
G36*
X01172Y06518D02*
X01095D01*
Y06507*
X0108*
X01072Y06506*
X01066Y06504*
X0106Y06499*
X01055Y06493*
X01053Y06487*
X01052Y0648*
X01053Y06472*
X01055Y06466*
X0106Y0646*
X01066Y06455*
X01072Y06453*
X0108Y06452*
X01095*
Y06441*
X01172*
Y06518*
G37*
G36*
X00713Y06287D02*
Y06265D01*
X00736*
X00733Y06272*
X00728Y06279*
X00721Y06284*
X00713Y06287*
G37*
G36*
X00693D02*
X00686Y06284D01*
X00679Y06279*
X00674Y06272*
X00671Y06265*
X00693*
Y06287*
G37*
G36*
X00736Y06245D02*
X00713D01*
Y06222*
X00721Y06225*
X00728Y0623*
X00733Y06237*
X00736Y06245*
G37*
G36*
X00693D02*
X00671D01*
X00674Y06237*
X00679Y0623*
X00686Y06225*
X00693Y06222*
Y06245*
G37*
G36*
X02308Y04707D02*
Y04685D01*
X02331*
X02328Y04692*
X02323Y04699*
X02316Y04704*
X02308Y04707*
G37*
G36*
X02288D02*
X02281Y04704D01*
X02274Y04699*
X02269Y04692*
X02266Y04685*
X02288*
Y04707*
G37*
G36*
X02331Y04665D02*
X02308D01*
Y04642*
X02316Y04645*
X02323Y0465*
X02328Y04657*
X02331Y04665*
G37*
G36*
X02288D02*
X02266D01*
X02269Y04657*
X02274Y0465*
X02281Y04645*
X02288Y04642*
Y04665*
G37*
G36*
X02334Y03765D02*
X02307D01*
Y03744*
X02334*
Y03765*
G37*
G36*
X02287D02*
X02261D01*
Y03744*
X02287*
Y03765*
G37*
G36*
X02308Y03587D02*
Y03565D01*
X02331*
X02328Y03572*
X02323Y03579*
X02316Y03584*
X02308Y03587*
G37*
G36*
X02288D02*
X02281Y03584D01*
X02274Y03579*
X02269Y03572*
X02266Y03565*
X02288*
Y03587*
G37*
G36*
X02331Y03545D02*
X02308D01*
Y03522*
X02316Y03525*
X02323Y0353*
X02328Y03537*
X02331Y03545*
G37*
G36*
X02288D02*
X02266D01*
X02269Y03537*
X02274Y0353*
X02281Y03525*
X02288Y03522*
Y03545*
G37*
G36*
X02336Y026D02*
X0231D01*
Y02579*
X02336*
Y026*
G37*
G36*
X0229D02*
X02263D01*
Y02579*
X0229*
Y026*
G37*
G36*
X02308Y02447D02*
Y02425D01*
X02331*
X02328Y02432*
X02323Y02439*
X02316Y02444*
X02308Y02447*
G37*
G36*
X02288D02*
X02281Y02444D01*
X02274Y02439*
X02269Y02432*
X02266Y02425*
X02288*
Y02447*
G37*
G36*
X02331Y02405D02*
X02308D01*
Y02382*
X02316Y02385*
X02323Y0239*
X02328Y02397*
X02331Y02405*
G37*
G36*
X02288D02*
X02266D01*
X02269Y02397*
X02274Y0239*
X02281Y02385*
X02288Y02382*
Y02405*
G37*
G36*
X00615Y01525D02*
Y01515D01*
X00625*
X00621Y01521*
X00615Y01525*
G37*
G36*
X00595D02*
X00588Y01521D01*
X00584Y01515*
X00595*
Y01525*
G37*
G36*
X00625Y01495D02*
X00615D01*
Y01484*
X00621Y01488*
X00625Y01495*
G37*
G36*
X00595D02*
X00584D01*
X00588Y01488*
X00595Y01484*
Y01495*
G37*
G36*
X00905Y01235D02*
Y01225D01*
X00915*
X00911Y01231*
X00905Y01235*
G37*
G36*
X00885D02*
X00878Y01231D01*
X00874Y01225*
X00885*
Y01235*
G37*
G36*
X00915Y01205D02*
X00905D01*
Y01194*
X00911Y01198*
X00915Y01205*
G37*
G36*
X00885D02*
X00874D01*
X00878Y01198*
X00885Y01194*
Y01205*
G37*
%LNchassispowerdistribution_b_1.0_rw-3*%
%LPD*%
G54D19*
X02102Y01D03*
X02177D03*
G54D20*
X00762Y00695D03*
X00817D03*
X0235Y0046D03*
X02405D03*
X01922Y0025D03*
X01867D03*
G54D21*
X0268Y00652D03*
Y00597D03*
X02315Y05587D03*
Y05532D03*
X023Y02665D03*
Y0261D03*
X02315Y01475D03*
Y0142D03*
X02297Y0383D03*
Y03775D03*
G54D22*
X02105Y00538D03*
Y00482D03*
X00895Y01143D03*
Y01087D03*
G54D23*
X02317Y0584D03*
X02242Y05739D03*
X02317D03*
X02312Y04025D03*
X02237Y03924D03*
X02312D03*
X02317Y029D03*
X02242Y02799D03*
X02317D03*
X02317Y0177D03*
X02242Y01669D03*
X02317D03*
G54D24*
X0228Y0584D03*
X02242D03*
X02275Y04025D03*
X02237D03*
X0228Y029D03*
X02242D03*
X0228Y0177D03*
X02242D03*
G54D25*
X0216Y01738D03*
Y01661D03*
X02155Y03991D03*
Y03915D03*
X01974Y0575D03*
Y05826D03*
G54D26*
X0216Y02858D03*
Y0279D03*
X02125Y05823D03*
Y05754D03*
G54D27*
X01927Y00826D03*
X01907D03*
X01888D03*
X01868D03*
X01848D03*
X01829D03*
X01809D03*
X01789D03*
X0177D03*
X0175D03*
X0173D03*
X01711D03*
X01691D03*
X01671D03*
X01652D03*
X01632D03*
Y00373D03*
X01652D03*
X01671D03*
X01691D03*
X01711D03*
X0173D03*
X0175D03*
X0177D03*
X01789D03*
X01809D03*
X01829D03*
X01848D03*
X01868D03*
X01888D03*
X01907D03*
X01927D03*
G54D28*
X01553Y00747D03*
Y00727D03*
Y00708D03*
Y00688D03*
Y00668D03*
Y00649D03*
Y00629D03*
Y00609D03*
Y0059D03*
Y0057D03*
Y0055D03*
Y00531D03*
Y00511D03*
Y00491D03*
Y00472D03*
Y00452D03*
X02006D03*
Y00472D03*
Y00491D03*
Y00511D03*
Y00531D03*
Y0055D03*
Y0057D03*
Y0059D03*
Y00609D03*
Y00629D03*
Y00649D03*
Y00668D03*
Y00688D03*
Y00708D03*
Y00727D03*
Y00747D03*
G54D29*
X00604Y01315D03*
G54D30*
X00762Y00536D03*
X00862Y00327D03*
X00812D03*
X00762D03*
X00712D03*
Y00536D03*
X00812D03*
X00862D03*
G54D31*
X00693Y01074D03*
X00514D03*
G54D32*
X02385Y0065D03*
X02775Y0075D03*
X0052Y0021D03*
X00803Y00213D03*
X0099Y00525D03*
X00925Y00465D03*
X02385Y006D03*
X0192Y0113D03*
X0143Y0057D03*
X01945Y01225D03*
X0208Y0216D03*
X02075Y03295D03*
Y044D03*
X01835Y05825D03*
X00265Y0625D03*
G54D33*
X01975Y05363D03*
Y05446D03*
G54D34*
X01826Y01285D03*
X01743D03*
X02161Y0199D03*
X02078D03*
X02161Y03135D03*
X02078D03*
X02161Y0424D03*
X02078D03*
X01216Y0648D03*
X01133D03*
G54D35*
X0177Y01135D03*
Y01073D03*
X0052Y00145D03*
Y00084D03*
X01835Y05228D03*
Y0529D03*
Y05465D03*
Y05526D03*
G54D36*
X02079Y01915D03*
X0214D03*
X01246Y0162D03*
X01185D03*
X0125Y0387D03*
X01189D03*
G54D37*
X0208Y0306D03*
X02159D03*
X00445Y0648D03*
X00524D03*
G54D38*
X01266Y02745D03*
X0119D03*
G54D39*
X0235Y00179D03*
X0255D03*
Y0036D03*
X0235D03*
G54D40*
X02079Y0417D03*
X0215D03*
G54D41*
X00335Y01153D03*
Y01076D03*
Y04016D03*
Y04093D03*
Y02891D03*
Y02968D03*
Y01766D03*
Y01843D03*
G54D54*
X02495Y006D03*
X02545Y0065D03*
X02495D03*
X02545Y007D03*
X02495D03*
X02545Y0075D03*
X02495D03*
X02545Y008D03*
X02495D03*
G54D79*
X01848Y0028D02*
Y00463D01*
X01905Y0052*
X01855Y0057D02*
X01905Y0052D01*
X01952Y00472*
X01814Y0057D02*
X01848D01*
X0185Y0057D02*
X01855D01*
X02006Y00472D02*
X02107D01*
X01731Y00653D02*
Y00826D01*
Y00653D02*
X01814Y0057D01*
X01553D02*
X01814D01*
X01848D02*
X01851Y00573D01*
X01952Y00472D02*
X02006D01*
X01851Y00573D02*
X01868Y0059D01*
X02006Y00472D02*
X02006Y00472D01*
X01795Y00745D02*
X018Y0075D01*
X01795Y00745D02*
X0192Y0062D01*
X018Y0075D02*
D01*
X0175Y0079D02*
X01795Y00745D01*
X01868Y0059D02*
X02006D01*
X01896Y0031D02*
X02051D01*
X01916Y00329D02*
X02044D01*
X01908Y00337D02*
X01916Y00329D01*
X01868Y00337D02*
X01896Y0031D01*
X02051D02*
X02383Y00641D01*
X01908Y00337D02*
Y00373D01*
X02046Y00609D02*
X02105Y0055D01*
X012Y01428D02*
X01497Y0113D01*
X01789Y00826D02*
Y00875D01*
X0125Y01415D02*
X01789Y00875D01*
X01497Y0113D02*
X01501D01*
X01769Y00862*
X01305Y014D02*
X01809Y00895D01*
Y00826D02*
Y00895D01*
X0136Y0138D02*
Y01385D01*
Y0138D02*
X01829Y0091D01*
Y00826D02*
Y0091D01*
X00712Y00594D02*
X00754Y00636D01*
X00823*
X0088Y00579*
X00712Y00536D02*
Y00594D01*
X00888Y00571D02*
D01*
X0088Y00579D02*
D01*
X00888Y00571*
X00959Y00499D01*
X01553Y00747D02*
X01607D01*
X01608Y00746*
X01553Y00747D02*
X01553Y00747D01*
X01848Y00943D02*
X0227Y01365D01*
X01868Y00918D02*
X0232Y0137D01*
X01907Y00874D02*
X0241Y01376D01*
Y0138*
X01888Y00898D02*
X02365Y01375D01*
X01888Y00826D02*
Y00898D01*
X01868Y00826D02*
Y00918D01*
X01848Y00826D02*
Y00943D01*
X02157Y0046D02*
X02291Y00594D01*
X02154Y0046D02*
X02157D01*
X02291Y00597D02*
X02493Y008D01*
X02291Y00594D02*
Y00597D01*
X0173Y00855D02*
X0173Y00855D01*
X0173Y00855D02*
Y00864D01*
X0152Y01075D02*
X0173Y00864D01*
X0173Y00826D02*
Y00855D01*
X0195Y00445D02*
X01957Y00452D01*
X02006*
X01907Y00826D02*
Y00874D01*
X0143Y0057D02*
X01553D01*
X01931Y00609D02*
X02006D01*
X0175Y0079D02*
Y00826D01*
X0175Y00826D02*
X0175Y00826D01*
X02006Y00609D02*
X02046D01*
X01769Y00826D02*
Y00862D01*
X01789Y00826D02*
X01789Y00826D01*
X01769Y00826D02*
X0177Y00826D01*
X0175Y00337D02*
Y00373D01*
X01735Y00322D02*
X0175Y00337D01*
X02383Y00641D02*
Y0065D01*
X01815Y0018D02*
X0235D01*
X01122Y00283D02*
X0175D01*
X01078Y00327D02*
X01122Y00283D01*
X00862Y00327D02*
X01078D01*
X02106Y00656D02*
X02154Y00609D01*
X02106Y00656D02*
Y00657D01*
X02154Y0046D02*
Y00609D01*
Y00438D02*
Y0046D01*
X02493Y008D02*
X02495D01*
X01868Y00337D02*
Y00373D01*
X01868Y00373D02*
X01868Y00373D01*
X02385Y0065D02*
X02495D01*
X02044Y00329D02*
X02154Y00438D01*
X01907Y00373D02*
X01908Y00373D01*
X01835Y00199D02*
X02284D01*
X02409Y00324*
X02529*
X0255Y00344*
Y0036*
X01848Y0028D02*
X01865Y00263D01*
Y00252D02*
Y00263D01*
X01829Y00206D02*
X01835Y00199D01*
X01829Y00206D02*
Y00373D01*
X01809Y00186D02*
X01815Y0018D01*
X01809Y00186D02*
Y00373D01*
X0175Y00283D02*
X01789Y00322D01*
Y00373*
X00959Y00499D02*
X01137Y00322D01*
X00959Y00499D02*
X00985Y00525D01*
X0099*
X00948Y00483D02*
X0113Y00302D01*
X0092Y00512D02*
X00948Y00483D01*
X0093Y00465D02*
X00948Y00483D01*
X00925Y00465D02*
X0093D01*
X00869Y00512D02*
X0092D01*
X00862Y00518D02*
X00869Y00512D01*
X00862Y00518D02*
Y00536D01*
X0113Y00302D02*
X01742D01*
X0177Y0033*
Y00373*
X01137Y00322D02*
X01735D01*
X0143Y0057D02*
X0143Y0057D01*
G54D80*
X02297Y0383D02*
X02303D01*
X02175Y02665D02*
X023D01*
X02347Y00562D02*
X02385Y006D01*
X02165Y00714D02*
Y01095D01*
X01768Y01075D02*
X01793D01*
X00895Y01074D02*
X01505D01*
X0231Y0162D02*
Y0163D01*
X02317Y01637*
Y01669*
X01715Y01075D02*
X01744D01*
X01768*
X01793D02*
X01794Y01074D01*
X01744Y01075D02*
X01745Y01074D01*
X01768Y01075D02*
X0177Y01073D01*
X01922Y0025D02*
X01975D01*
X02105Y00538D02*
X0211Y00543D01*
Y00595*
X02105Y00538D02*
Y0055D01*
X02314Y01475D02*
X02315Y01475D01*
X02255Y01475D02*
X02314D01*
X02315Y01475D02*
Y01535D01*
X02694Y00666D02*
X02828Y008D01*
X01854Y05235D02*
X02151Y05532D01*
X00605Y01311D02*
Y01505D01*
X01961Y0142D02*
X02315D01*
X02317Y02676D02*
Y02799D01*
X02305Y02665D02*
X02317Y02676D01*
X023Y02665D02*
X02305D01*
X023Y02665D02*
D01*
X02297Y0383D02*
X02297Y0383D01*
X02312Y03839D02*
Y03924D01*
X02303Y0383D02*
X02312Y03839D01*
X0218Y0383D02*
X02297D01*
X00604Y0085D02*
Y0131D01*
X0035Y00596D02*
X00604Y0085D01*
X003Y0014D02*
X0035Y0019D01*
Y00596*
X003Y00646D02*
X0035Y00596D01*
X00803Y00213D02*
X00812Y00222D01*
X00505Y00085D02*
X00675D01*
X00803Y00213*
X00395Y0021D02*
X00665D01*
X00707Y00252*
X00181Y0014D02*
X00236Y00085D01*
X00812Y00222D02*
Y00326D01*
X00131Y0019D02*
X00181Y0014D01*
X00236Y00085D02*
X00505D01*
X00812Y00326D02*
X00812Y00327D01*
X00707Y00252D02*
X00707D01*
X00935Y0655D02*
X0095Y06535D01*
X00925Y0655D02*
X00935D01*
X0095Y06535D02*
X01161D01*
X01216Y0648*
X00335Y01153D02*
Y01235D01*
X01632Y01332D02*
X01635Y01335D01*
X01876*
X01826Y01285D02*
X01876Y01335D01*
X01961Y0142*
X00604Y0131D02*
X00605Y01311D01*
X00812Y00536D02*
Y00607D01*
X00813Y00608*
X00817Y00689D02*
Y00695D01*
Y00689D02*
X00865Y00641D01*
Y0064D02*
Y00641D01*
X00762Y00695D02*
D01*
X0071D02*
X00762D01*
X00762Y00536D02*
Y00607D01*
X00765Y0061*
X00895Y01143D02*
Y01215D01*
X01744Y0114D02*
Y01284D01*
X02161Y0199D02*
X02225D01*
X02317Y01812D02*
X0232Y01815D01*
X02317Y0177D02*
Y01812D01*
X0228Y0177D02*
D01*
Y01815*
X0216Y01738D02*
Y01815D01*
X02242Y0177D02*
Y01812D01*
X0224Y01815D02*
X02242Y01812D01*
X02078Y0199D02*
X02079Y01989D01*
Y01915D02*
Y01989D01*
Y01915D02*
X02079Y01915D01*
X02161Y03135D02*
X02225D01*
X023Y02665D02*
X02301Y02666D01*
X02317Y029D02*
Y02942D01*
X0232Y02945*
X0228Y029D02*
D01*
Y02945*
X0216Y02858D02*
Y02945D01*
X02242Y029D02*
Y02942D01*
X0224Y02945D02*
X02242Y02942D01*
X02079Y03059D02*
Y03134D01*
X02078Y03135D02*
X02079Y03134D01*
X02078Y03057D02*
X02079Y03059D01*
X02296Y03831D02*
X02297Y0383D01*
X02312Y04025D02*
Y04067D01*
X02315Y0407*
X02275Y04025D02*
Y0407D01*
D01*
X02155Y03991D02*
Y0407D01*
X02237Y04025D02*
Y04067D01*
X02235Y0407D02*
X02237Y04067D01*
X02079Y04169D02*
Y04239D01*
X02078Y0424D02*
X02079Y04239D01*
X02078Y04168D02*
X02079Y04169D01*
X02161Y0424D02*
X0222D01*
X02125Y05823D02*
Y0588D01*
X02244Y05852D02*
Y0588D01*
X0224Y05885D02*
X02244Y0588D01*
X0228Y0584D02*
Y0589D01*
X00335Y01843D02*
Y0189D01*
Y02968D02*
Y03015D01*
Y04093D02*
Y0414D01*
X01975Y05446D02*
D01*
Y055*
X01974Y0569D02*
Y0575D01*
Y0569D02*
X01975Y0569D01*
X0224Y0573D02*
X02242Y05731D01*
X0224Y0573D02*
X0224D01*
X02252Y05587D02*
X02315D01*
X0225Y05585D02*
X02252Y05587D01*
X02317Y05739D02*
X02317Y0574D01*
X0237*
X02315Y05587D02*
X02367D01*
X0237Y0559*
X02317Y0584D02*
X02317Y0584D01*
X02365*
X02242Y0584D02*
X02244Y05841D01*
Y05851*
X02244Y05852*
X00525Y0648D02*
X0058D01*
X01133D02*
D01*
X0108D02*
X01133D01*
X01885Y01165D02*
X01945Y01225D01*
X01794Y01074D02*
X01885Y01165D01*
X0192Y0113*
X01956Y01095D02*
X0196D01*
X01921Y0113D02*
X01956Y01095D01*
X0192Y0113D02*
X01921D01*
X02165Y00714D02*
X02265Y00614D01*
Y00605D02*
Y00614D01*
X00562Y04765D02*
X006D01*
X019D02*
X01937D01*
X0125Y04115D02*
X019Y04765D01*
X0125Y0387D02*
Y04115D01*
X00562Y0364D02*
X00609D01*
X019D02*
X01937D01*
X01254Y02994D02*
X019Y0364D01*
X01254Y02756D02*
Y02994D01*
Y02756D02*
X01266Y02745D01*
X00562Y02515D02*
X00586D01*
X01905D02*
X01937D01*
X01246Y01856D02*
X01905Y02515D01*
X01246Y0162D02*
Y01856D01*
X0216Y0199D02*
X02161D01*
X0216Y03135D02*
X02161D01*
X0216Y0424D02*
X02161D01*
X02151Y05532D02*
X02315D01*
X01835Y05228D02*
X01841Y05235D01*
X01854*
X02292Y03775D02*
X02297D01*
X02298Y02415D02*
X02303Y02419D01*
X02675Y0032D02*
Y0046D01*
X0255Y00195D02*
X02675Y0032D01*
X0255Y00179D02*
Y00195D01*
X02828Y00613D02*
Y008D01*
X02675Y0046D02*
X02828Y00613D01*
X02405Y0046D02*
X02675D01*
X02545Y007D02*
X02547Y00702D01*
X02555*
X02585Y00733*
Y00766*
X02561Y0079D02*
X02585Y00766D01*
X02558Y0079D02*
X02561D01*
X02549Y008D02*
X02558Y0079D01*
X02545Y008D02*
X02549D01*
X02545Y0065D02*
Y007D01*
Y0065D02*
X02546Y00651D01*
X02678*
X0268Y00652*
X02828Y008D02*
Y01335D01*
X02694Y00661D02*
Y00666D01*
X01186Y01621D02*
Y01763D01*
X02315Y01475D02*
Y01475D01*
X02297Y0383D02*
Y0383D01*
X02347Y00562D02*
X0235Y0056D01*
X02347Y00562D02*
X02347Y00562D01*
X02106Y00922D02*
X0211Y00926D01*
X02105Y00924D02*
X02106Y00922D01*
X02105Y00924D02*
Y01D01*
X00762Y00695D02*
Y01072D01*
X003Y00765D02*
X00303Y00761D01*
X00232Y00207D02*
Y00714D01*
X00181Y00258D02*
X00232Y00207D01*
X00181Y00765D02*
X00232Y00714D01*
X00131Y00596D02*
X00181Y00646D01*
X00131Y0019D02*
Y00596D01*
X00762Y00326D02*
X00762Y00327D01*
X00762Y00306D02*
Y00326D01*
X00707Y00252D02*
X00762Y00306D01*
X00765Y01074D02*
X00894D01*
X00694D02*
X00765D01*
X00762Y01072D02*
X00765Y01074D01*
X02678Y00598D02*
X0268Y00597D01*
X02546Y00598D02*
X02678D01*
X02545Y006D02*
X02546Y00598D01*
X02495Y006D02*
X02545D01*
X02385D02*
X02495D01*
X0235Y0046D02*
Y0056D01*
X02383Y0065D02*
X02385D01*
X0235Y0036D02*
Y0046D01*
X01666Y05226D02*
X01667Y05227D01*
X01833*
X01835Y05228*
X01834Y05525D02*
X01835Y05526D01*
X01666Y05525D02*
X01834D01*
X01666Y05525D02*
X01666Y05525D01*
X01975Y0575D02*
D01*
X01974D02*
X01975D01*
X02078Y01913D02*
X02079Y01915D01*
X02078Y03057D02*
X0208Y0306D01*
X01743Y01285D02*
X01744Y01284D01*
X00894Y01074D02*
X00895Y01074D01*
X00693Y01074D02*
X00694Y01074D01*
X01835Y0529D02*
Y05465D01*
X01185Y0162D02*
X01186Y01621D01*
Y01763D02*
X01187Y01765D01*
X01188Y02746D02*
X0119Y02745D01*
X01188Y02746D02*
Y02888D01*
X01187Y0289D02*
X01188Y02888D01*
X01188Y0387D02*
X01189Y0387D01*
X01188Y0387D02*
Y04014D01*
X01187Y04015D02*
X01188Y04014D01*
G54D81*
X00476Y073D03*
X0077D03*
X00475Y06795D03*
X00769D03*
G54D82*
X00085Y07485D03*
X0122Y00145D03*
X0285D03*
X03015Y07485D03*
X003Y00258D03*
Y0014D03*
X00181Y00258D03*
Y0014D03*
X003Y00765D03*
Y00646D03*
X00181Y00765D03*
Y00646D03*
G54D83*
X01937Y0364D03*
Y0289D03*
X01312D03*
X01187D03*
X01062D03*
X00562D03*
X01937Y02515D03*
Y01765D03*
X01312D03*
X01187D03*
X01062D03*
X00562D03*
Y04015D03*
X01062D03*
X01187D03*
X01312D03*
X01937D03*
Y04765D03*
G54D84*
X00562Y0364D03*
Y02515D03*
Y04765D03*
G54D85*
X02298Y04675D03*
Y02415D03*
Y03555D03*
X00703Y06255D03*
G54D86*
X02161Y04675D03*
Y02415D03*
Y03555D03*
X00566Y06255D03*
G54D87*
X02828Y06875D03*
X02572D03*
X02828Y06455D03*
X02572D03*
X02828Y0603D03*
X02572D03*
X02828Y05185D03*
X02572D03*
X02828Y04765D03*
X02572D03*
X02828Y0434D03*
X02572D03*
X02828Y03895D03*
X02572D03*
X02828Y03465D03*
X02572D03*
X02828Y03045D03*
X02572D03*
X02828Y0262D03*
X02572D03*
X02828Y0218D03*
X02572D03*
X02828Y0176D03*
X02572D03*
X02828Y01335D03*
X02572D03*
G54D88*
X02545Y006D03*
G54D89*
X02106Y00667D03*
Y00922D03*
X02283Y00667D03*
Y00922D03*
G54D90*
X00568Y05825D03*
G54D91*
X00568Y05525D03*
Y05226D03*
X01666Y05525D03*
Y05675D03*
G54D92*
X01666Y05226D03*
Y05825D03*
G54D93*
X018Y0075D03*
X0231Y0162D03*
X01715Y01075D03*
X01975Y0025D03*
X0211Y00595D03*
X02315Y01535D03*
X02255Y01475D03*
X02175Y02665D03*
X0218Y0383D03*
X00395Y0021D03*
X00232Y00207D03*
X012Y01428D03*
X0125Y01415D03*
X01305Y014D03*
X0136Y01385D03*
X00605Y01505D03*
X00335Y01235D03*
X01632Y01332D03*
X00813Y00608D03*
X00865Y0064D03*
X00765Y0061D03*
X0071Y00695D03*
X00895Y01215D03*
X02225Y0199D03*
X0232Y01815D03*
X0228D03*
X0216D03*
X0224D03*
X02225Y03135D03*
X0232Y02945D03*
X0228D03*
X0216D03*
X0224D03*
X02315Y0407D03*
X02275D03*
X02155D03*
X02235D03*
X0222Y0424D03*
X02125Y0588D03*
X0224Y05885D03*
X0228Y0589D03*
X00335Y0189D03*
Y03015D03*
Y0414D03*
X01975Y055D03*
Y0569D03*
X0225Y05585D03*
X0237Y0574D03*
Y0559D03*
X02365Y0584D03*
X0058Y0648D03*
X0108D03*
X01608Y00746D03*
X0196Y01095D03*
X0227Y01365D03*
X0232Y0137D03*
X0241Y0138D03*
X02365Y01375D03*
X02265Y00605D03*
X0192Y0062D03*
X0195Y00445D03*
X0152Y01075D03*
X02165Y01095D03*
X01945Y01225D03*
X02347Y00562D03*
M02*