%FSTAX23Y23*%
%MOIN*%
%SFA1B1*%

%IPPOS*%
%ADD54C,0.040000*%
%ADD81O,0.099000X0.263000*%
%ADD82C,0.060000*%
%ADD83C,0.074800*%
%ADD84R,0.074800X0.074800*%
%ADD85C,0.048420*%
%ADD86R,0.048420X0.048420*%
%ADD87C,0.072840*%
%ADD88R,0.040000X0.040000*%
%ADD89C,0.058980*%
%ADD90R,0.075240X0.075240*%
%ADD91C,0.075240*%
%ADD92C,0.107720*%
%LNchassispowerdistribution_b_1.0_rw-1*%
%LPD*%
G54D54*
X02495Y006D03*
X02545Y0065D03*
X02495D03*
X02545Y007D03*
X02495D03*
X02545Y0075D03*
X02495D03*
X02545Y008D03*
X02495D03*
G54D81*
X00476Y073D03*
X0077D03*
X00475Y06795D03*
X00769D03*
G54D82*
X00085Y07485D03*
X0122Y00145D03*
X0285D03*
X03015Y07485D03*
X003Y00258D03*
Y0014D03*
X00181Y00258D03*
Y0014D03*
X003Y00765D03*
Y00646D03*
X00181Y00765D03*
Y00646D03*
G54D83*
X01937Y0364D03*
Y0289D03*
X01312D03*
X01187D03*
X01062D03*
X00562D03*
X01937Y02515D03*
Y01765D03*
X01312D03*
X01187D03*
X01062D03*
X00562D03*
Y04015D03*
X01062D03*
X01187D03*
X01312D03*
X01937D03*
Y04765D03*
G54D84*
X00562Y0364D03*
Y02515D03*
Y04765D03*
G54D85*
X02298Y04675D03*
Y02415D03*
Y03555D03*
X00703Y06255D03*
G54D86*
X02161Y04675D03*
Y02415D03*
Y03555D03*
X00566Y06255D03*
G54D87*
X02828Y06875D03*
X02572D03*
X02828Y06455D03*
X02572D03*
X02828Y0603D03*
X02572D03*
X02828Y05185D03*
X02572D03*
X02828Y04765D03*
X02572D03*
X02828Y0434D03*
X02572D03*
X02828Y03895D03*
X02572D03*
X02828Y03465D03*
X02572D03*
X02828Y03045D03*
X02572D03*
X02828Y0262D03*
X02572D03*
X02828Y0218D03*
X02572D03*
X02828Y0176D03*
X02572D03*
X02828Y01335D03*
X02572D03*
G54D88*
X02545Y006D03*
G54D89*
X02106Y00667D03*
Y00922D03*
X02283Y00667D03*
Y00922D03*
G54D90*
X00568Y05825D03*
G54D91*
X00568Y05525D03*
Y05226D03*
X01666Y05525D03*
Y05675D03*
G54D92*
X01666Y05226D03*
Y05825D03*
M02*