M48
;Layer_Color=9474304
;FILE_FORMAT=2:5
INCH,LZ
;TYPE=PLATED
T1F00S00C0.01000
T2F00S00C0.02800
T3F00S00C0.03228
T4F00S00C0.03898
T6F00S00C0.04000
T7F00S00C0.04921
T8F00S00C0.05016
T9F00S00C0.05512
T10F00S00C0.07181
T11F00S00C0.11800
;TYPE=NON_PLATED
T12F00S00C0.04000
T13F00S00C0.04724
T14F00S00C0.12598
%
T01
X0023239Y0020761
X00395Y0021
X00765Y0061
X0081393Y0060893
X00865Y0064
X0071Y00695
X00895Y01215
X012Y0142823
X0125Y01415
X01305Y014
X0136Y01385
X0152Y01075
X00605Y01505
X00335Y01235
X016325Y013325
X01715Y01075
X0196Y01095
X01945Y01225
X02165Y01095
X0227Y01365
X0232Y0137
X02365Y01375
X0241Y0138
X02315Y01535
X02255Y01475
X02265Y00605
X0234781Y0056219
X0211Y00595
X0192Y0062
X0195Y00445
X01975Y0025
X0180046Y0075046
X0160882Y0074618
X0231Y0162
X0232Y01815
X0228
X0224
X0216
X02225Y0199
X02175Y02665
X0216Y02945
X0224
X0228
X0232
X00335Y03015
Y0189
Y0414
X02155Y0407
X02235
X02275
X02315
X0222Y0424
X0218Y0383
X02225Y03135
X0225Y05585
X0237Y0559
Y0574
X02365Y0584
X0228Y0589
X0224Y05885
X02125Y0588
X01975Y0569
Y055
X0108Y0648
X0058063Y0648
T02
X02495Y006
X02545
Y0065
X02495
Y007
X02545
Y0075
X02495
Y008
X02545
T03
X021611Y02415
X022989
Y03555
X021611
Y04675
X022989
X007039Y06255
X005661
T04
X0210642Y0066705
X0228358
Y0092295
X0210642
T06
X0018189Y0014
X003
Y0025811
X0018189
Y0064689
X003
Y00765
X0018189
T07
X0257252Y0133504
X0282843
Y0176
X0257252
Y0218
X0282843
Y0262004
X0257252
Y03045
X0282843
Y03465
X0257252
Y03895
X0282843
Y0434004
X0257252
Y04765
X0282843
Y05185
X0257252
X0257252Y0603004
X0282843
Y06455
X0257252
Y06875
X0282843
T08
X0166656Y0552578
Y0567539
X0056813Y05825
Y0552578
Y0522657
T09
X0193799Y0176519
Y0251519
Y0289019
X013128
X011876
X010624
X005624
Y0251519
Y0176519
X010624
X011876
X013128
Y0401519
X011876
X010624
X005624
Y0364019
X0193799
Y0401519
Y0476519
X005624
T10
X0166656Y0522657
Y05825
T11
X00286Y06713
X00287Y07218
X00959
X00958Y06713
T12
X0006378Y0029512
X0041811
Y0080201
X0006378
T13
X0248Y0145
Y0187496
Y0229496
Y02735
Y0315996
Y0357996
Y0400996
Y04455
Y0487996
Y0529996
X0248Y06145
Y0656996
Y0698996
T14
X0122Y00145
X0285
X00085Y07485
X03015
M30
