%FSTAX23Y23*%
%MOIN*%
%SFA1B1*%

%IPPOS*%
%AMD23*
4,1,8,0.008900,0.015700,-0.008900,0.015700,-0.010800,0.013800,-0.010800,-0.013800,-0.008900,-0.015700,0.008900,-0.015700,0.010800,-0.013800,0.010800,0.013800,0.008900,0.015700,0.0*
1,1,0.003900,0.008900,0.013800*
1,1,0.003900,-0.008900,0.013800*
1,1,0.003900,-0.008900,-0.013800*
1,1,0.003900,0.008900,-0.013800*
%
%AMD24*
4,1,8,0.008900,0.015500,-0.008900,0.015500,-0.010800,0.013500,-0.010800,-0.013500,-0.008900,-0.015500,0.008900,-0.015500,0.010800,-0.013500,0.010800,0.013500,0.008900,0.015500,0.0*
1,1,0.003900,0.008900,0.013500*
1,1,0.003900,-0.008900,0.013500*
1,1,0.003900,-0.008900,-0.013500*
1,1,0.003900,0.008900,-0.013500*
%
%ADD19R,0.041340X0.055120*%
%ADD20R,0.042000X0.053150*%
%ADD21R,0.053150X0.042000*%
%ADD22R,0.053150X0.043000*%
G04~CAMADD=23~8~0.0~0.0~216.5~315.0~19.5~0.0~15~0.0~0.0~0.0~0.0~0~0.0~0.0~0.0~0.0~0~0.0~0.0~0.0~0.0~216.5~315.0*
%ADD23D23*%
G04~CAMADD=24~8~0.0~0.0~216.5~310.0~19.5~0.0~15~0.0~0.0~0.0~0.0~0~0.0~0.0~0.0~0.0~0~0.0~0.0~0.0~0.0~216.5~310.0*
%ADD24D24*%
%ADD25R,0.061020X0.053150*%
%ADD26R,0.057090X0.045280*%
%ADD27R,0.011810X0.061020*%
%ADD28R,0.061020X0.011810*%
%ADD29R,0.214570X0.259840*%
%ADD30R,0.023620X0.059060*%
%ADD31R,0.035430X0.062990*%
%ADD32C,0.032000*%
%ADD33R,0.047240X0.047240*%
%ADD34R,0.047240X0.047240*%
%ADD35R,0.053150X0.037400*%
%ADD36R,0.037400X0.053150*%
%ADD37R,0.047240X0.057090*%
%ADD38R,0.053150X0.061020*%
%ADD39R,0.051180X0.082680*%
%ADD40R,0.039370X0.053150*%
%ADD41R,0.053150X0.021650*%
%LNchassispowerdistribution_b_1.0_rw-1*%
%LPD*%
G54D19*
X02102Y01D03*
X02177D03*
G54D20*
X00762Y00695D03*
X00817D03*
X0235Y0046D03*
X02405D03*
X01922Y0025D03*
X01867D03*
G54D21*
X0268Y00652D03*
Y00597D03*
X02315Y05587D03*
Y05532D03*
X023Y02665D03*
Y0261D03*
X02315Y01475D03*
Y0142D03*
X02297Y0383D03*
Y03775D03*
G54D22*
X02105Y00538D03*
Y00482D03*
X00895Y01143D03*
Y01087D03*
G54D23*
X02317Y0584D03*
X02242Y05739D03*
X02317D03*
X02312Y04025D03*
X02237Y03924D03*
X02312D03*
X02317Y029D03*
X02242Y02799D03*
X02317D03*
X02317Y0177D03*
X02242Y01669D03*
X02317D03*
G54D24*
X0228Y0584D03*
X02242D03*
X02275Y04025D03*
X02237D03*
X0228Y029D03*
X02242D03*
X0228Y0177D03*
X02242D03*
G54D25*
X0216Y01738D03*
Y01661D03*
X02155Y03991D03*
Y03915D03*
X01974Y0575D03*
Y05826D03*
G54D26*
X0216Y02858D03*
Y0279D03*
X02125Y05823D03*
Y05754D03*
G54D27*
X01927Y00826D03*
X01907D03*
X01888D03*
X01868D03*
X01848D03*
X01829D03*
X01809D03*
X01789D03*
X0177D03*
X0175D03*
X0173D03*
X01711D03*
X01691D03*
X01671D03*
X01652D03*
X01632D03*
Y00373D03*
X01652D03*
X01671D03*
X01691D03*
X01711D03*
X0173D03*
X0175D03*
X0177D03*
X01789D03*
X01809D03*
X01829D03*
X01848D03*
X01868D03*
X01888D03*
X01907D03*
X01927D03*
G54D28*
X01553Y00747D03*
Y00727D03*
Y00708D03*
Y00688D03*
Y00668D03*
Y00649D03*
Y00629D03*
Y00609D03*
Y0059D03*
Y0057D03*
Y0055D03*
Y00531D03*
Y00511D03*
Y00491D03*
Y00472D03*
Y00452D03*
X02006D03*
Y00472D03*
Y00491D03*
Y00511D03*
Y00531D03*
Y0055D03*
Y0057D03*
Y0059D03*
Y00609D03*
Y00629D03*
Y00649D03*
Y00668D03*
Y00688D03*
Y00708D03*
Y00727D03*
Y00747D03*
G54D29*
X00604Y01315D03*
G54D30*
X00762Y00536D03*
X00862Y00327D03*
X00812D03*
X00762D03*
X00712D03*
Y00536D03*
X00812D03*
X00862D03*
G54D31*
X00693Y01074D03*
X00514D03*
G54D32*
X02385Y0065D03*
X02775Y0075D03*
X0052Y0021D03*
X00803Y00213D03*
X0099Y00525D03*
X00925Y00465D03*
X02385Y006D03*
X0192Y0113D03*
X0143Y0057D03*
X01945Y01225D03*
X0208Y0216D03*
X02075Y03295D03*
Y044D03*
X01835Y05825D03*
X00265Y0625D03*
G54D33*
X01975Y05363D03*
Y05446D03*
G54D34*
X01826Y01285D03*
X01743D03*
X02161Y0199D03*
X02078D03*
X02161Y03135D03*
X02078D03*
X02161Y0424D03*
X02078D03*
X01216Y0648D03*
X01133D03*
G54D35*
X0177Y01135D03*
Y01073D03*
X0052Y00145D03*
Y00084D03*
X01835Y05228D03*
Y0529D03*
Y05465D03*
Y05526D03*
G54D36*
X02079Y01915D03*
X0214D03*
X01246Y0162D03*
X01185D03*
X0125Y0387D03*
X01189D03*
G54D37*
X0208Y0306D03*
X02159D03*
X00445Y0648D03*
X00524D03*
G54D38*
X01266Y02745D03*
X0119D03*
G54D39*
X0235Y00179D03*
X0255D03*
Y0036D03*
X0235D03*
G54D40*
X02079Y0417D03*
X0215D03*
G54D41*
X00335Y01153D03*
Y01076D03*
Y04016D03*
Y04093D03*
Y02891D03*
Y02968D03*
Y01766D03*
Y01843D03*
M02*