G04*
G04 #@! TF.GenerationSoftware,Altium Limited,Altium Designer,20.0.10 (225)*
G04*
G04 Layer_Color=32896*
%FSLAX25Y25*%
%MOIN*%
G70*
G01*
G75*
%ADD12C,0.01181*%
%ADD13C,0.00500*%
D12*
X206071Y475768D02*
G03*
X206071Y475768I-394J0D01*
G01*
D02*
G03*
X206071Y475768I-394J0D01*
G01*
Y249768D02*
G03*
X206071Y249768I-394J0D01*
G01*
D02*
G03*
X206071Y249768I-394J0D01*
G01*
Y363768D02*
G03*
X206071Y363768I-394J0D01*
G01*
D02*
G03*
X206071Y363768I-394J0D01*
G01*
X46571Y633768D02*
G03*
X46571Y633768I-394J0D01*
G01*
D02*
G03*
X46571Y633768I-394J0D01*
G01*
D13*
X238748Y467500D02*
G03*
X238748Y467500I-15748J0D01*
G01*
D02*
G03*
X238748Y467500I-15748J0D01*
G01*
Y241500D02*
G03*
X238748Y241500I-15748J0D01*
G01*
D02*
G03*
X238748Y241500I-15748J0D01*
G01*
Y355500D02*
G03*
X238748Y355500I-15748J0D01*
G01*
D02*
G03*
X238748Y355500I-15748J0D01*
G01*
X79248Y625500D02*
G03*
X79248Y625500I-15748J0D01*
G01*
D02*
G03*
X79248Y625500I-15748J0D01*
G01*
X207689Y67689D02*
Y91311D01*
Y67689D02*
X231311D01*
Y91311D01*
X207689D02*
X231311D01*
X207689Y67689D02*
Y91311D01*
Y67689D02*
X231311D01*
Y91311D01*
X207689D02*
X231311D01*
M02*
