G04*
G04 #@! TF.GenerationSoftware,Altium Limited,Altium Designer,20.0.10 (225)*
G04*
G04 Layer_Physical_Order=2*
G04 Layer_Color=16711680*
%FSLAX25Y25*%
%MOIN*%
G70*
G01*
G75*
%ADD54C,0.04000*%
%ADD79C,0.01100*%
%ADD80C,0.02500*%
%ADD81O,0.09900X0.26300*%
%ADD82C,0.06000*%
%ADD83C,0.07480*%
%ADD84R,0.07480X0.07480*%
%ADD85C,0.04842*%
%ADD86R,0.04842X0.04842*%
%ADD87C,0.07284*%
%ADD88R,0.04000X0.04000*%
%ADD89C,0.05898*%
%ADD90R,0.07524X0.07524*%
%ADD91C,0.07524*%
%ADD92C,0.10772*%
%ADD93C,0.02500*%
G36*
X62500Y650774D02*
X58065D01*
X58063Y650774D01*
X57345Y650679D01*
X56676Y650402D01*
X56102Y649962D01*
X55661Y649387D01*
X55384Y648718D01*
X55289Y648000D01*
X55289Y648000D01*
X55289Y648000D01*
X55384Y647282D01*
X55661Y646613D01*
X56102Y646039D01*
X56676Y645598D01*
X57345Y645321D01*
X58063Y645226D01*
X62500D01*
Y574500D01*
X45500D01*
Y469702D01*
X31539Y455740D01*
X31098Y455166D01*
X30821Y454497D01*
X30726Y453779D01*
Y414000D01*
X30821Y413282D01*
X31098Y412613D01*
X31539Y412039D01*
X32113Y411598D01*
X32782Y411321D01*
X33500Y411226D01*
X34218Y411321D01*
X34887Y411598D01*
X35461Y412039D01*
X35902Y412613D01*
X36179Y413282D01*
X36274Y414000D01*
Y452630D01*
X45038Y461395D01*
X45500Y461203D01*
Y407000D01*
X63500D01*
Y396000D01*
X45500D01*
Y357202D01*
X31539Y343240D01*
X31098Y342666D01*
X30821Y341997D01*
X30726Y341279D01*
Y301500D01*
X30821Y300782D01*
X31098Y300113D01*
X31539Y299539D01*
X32113Y299098D01*
X32782Y298821D01*
X33500Y298726D01*
X34218Y298821D01*
X34887Y299098D01*
X35461Y299539D01*
X35902Y300113D01*
X36179Y300782D01*
X36274Y301500D01*
Y340130D01*
X45038Y348895D01*
X45500Y348703D01*
Y295000D01*
X63500D01*
Y283000D01*
X45500D01*
Y244702D01*
X31539Y230740D01*
X31098Y230166D01*
X30821Y229497D01*
X30726Y228779D01*
Y189000D01*
X30821Y188282D01*
X31098Y187613D01*
X31539Y187039D01*
X32113Y186598D01*
X32782Y186321D01*
X33500Y186226D01*
X34218Y186321D01*
X34887Y186598D01*
X35461Y187039D01*
X35902Y187613D01*
X36179Y188282D01*
X36274Y189000D01*
Y227630D01*
X45038Y236395D01*
X45500Y236203D01*
Y182000D01*
X63500D01*
Y170500D01*
X45500D01*
Y139423D01*
X31539Y125461D01*
X31098Y124887D01*
X30821Y124218D01*
X30726Y123500D01*
X30821Y122782D01*
X31098Y122113D01*
X31539Y121539D01*
X32113Y121098D01*
X32782Y120821D01*
X33500Y120726D01*
X34218Y120821D01*
X34887Y121098D01*
X35461Y121539D01*
X45038Y131115D01*
X45500Y130924D01*
Y112500D01*
X55500D01*
Y102500D01*
X2500D01*
Y742794D01*
X2730Y742877D01*
X3000Y742924D01*
X4146Y741984D01*
X5501Y741260D01*
X6971Y740814D01*
X8500Y740663D01*
X10029Y740814D01*
X11499Y741260D01*
X12854Y741984D01*
X14042Y742958D01*
X15016Y744146D01*
X15740Y745501D01*
X16186Y746971D01*
X16337Y748500D01*
X16186Y750029D01*
X15740Y751499D01*
X15205Y752500D01*
X15505Y753000D01*
X62500D01*
Y650774D01*
D02*
G37*
G36*
X103538Y752538D02*
X103500Y752500D01*
X294308D01*
X294565Y752071D01*
X294260Y751499D01*
X293814Y750029D01*
X293663Y748500D01*
X293814Y746971D01*
X294260Y745501D01*
X294984Y744146D01*
X295958Y742958D01*
X297146Y741984D01*
X298501Y741260D01*
X299971Y740814D01*
X301500Y740663D01*
X303029Y740814D01*
X304499Y741260D01*
X304571Y741298D01*
X305000Y741041D01*
Y125000D01*
X272500D01*
X272500Y512500D01*
X243090D01*
Y579500D01*
X242931Y580300D01*
X242478Y580978D01*
X239246Y584210D01*
X239179Y584718D01*
X238902Y585387D01*
X238461Y585961D01*
X237887Y586402D01*
X237218Y586679D01*
X236500Y586774D01*
X235782Y586679D01*
X235113Y586402D01*
X234539Y585961D01*
X234098Y585387D01*
X233821Y584718D01*
X233726Y584000D01*
X233821Y583282D01*
X234098Y582613D01*
X234539Y582039D01*
X235113Y581598D01*
X235782Y581321D01*
X236290Y581254D01*
X238910Y578634D01*
Y576566D01*
X238461Y576345D01*
X238387Y576402D01*
X237718Y576679D01*
X237000Y576774D01*
X236282Y576679D01*
X235613Y576402D01*
X235039Y575961D01*
X234598Y575387D01*
X234321Y574718D01*
X234226Y574000D01*
Y559000D01*
X234321Y558282D01*
X234598Y557613D01*
X235039Y557039D01*
X235613Y556598D01*
X236282Y556321D01*
X237000Y556226D01*
X237718Y556321D01*
X238387Y556598D01*
X238461Y556655D01*
X238910Y556434D01*
Y512500D01*
X235000D01*
Y462500D01*
X225000D01*
Y475000D01*
X208500D01*
Y471000D01*
X206228D01*
Y529561D01*
X226961Y550295D01*
X227402Y550869D01*
X227679Y551538D01*
X227774Y552256D01*
Y558500D01*
X227679Y559218D01*
X227402Y559887D01*
X226961Y560461D01*
X226387Y560902D01*
X225718Y561179D01*
X225000Y561274D01*
X224282Y561179D01*
X223613Y560902D01*
X223039Y560461D01*
X222598Y559887D01*
X222321Y559218D01*
X222226Y558500D01*
Y553405D01*
X201493Y532671D01*
X201052Y532097D01*
X200775Y531428D01*
X200680Y530710D01*
Y471000D01*
X186000D01*
X126000Y411000D01*
X100500D01*
Y398735D01*
X90022Y388257D01*
X89569Y387579D01*
X88948Y386958D01*
Y177484D01*
X88486Y177293D01*
X86087Y179692D01*
X86431Y180035D01*
Y416763D01*
X86589Y524890D01*
X86589Y524891D01*
X86589Y524893D01*
X86509Y525292D01*
X86431Y525690D01*
Y525916D01*
X65000Y547347D01*
Y645226D01*
X108000D01*
X108718Y645321D01*
X109387Y645598D01*
X109961Y646039D01*
X110402Y646613D01*
X110679Y647282D01*
X110774Y648000D01*
X110679Y648718D01*
X110402Y649387D01*
X109961Y649961D01*
X109387Y650402D01*
X108718Y650679D01*
X108000Y650774D01*
X65000D01*
Y753000D01*
X103347D01*
X103538Y752538D01*
D02*
G37*
%LPC*%
G36*
X28700Y729236D02*
X27249Y729093D01*
X25854Y728670D01*
X24569Y727983D01*
X23442Y727058D01*
X22517Y725931D01*
X21830Y724646D01*
X21407Y723251D01*
X21264Y721800D01*
X21407Y720349D01*
X21830Y718954D01*
X22517Y717669D01*
X23442Y716542D01*
X24569Y715617D01*
X25854Y714930D01*
X27249Y714507D01*
X28700Y714364D01*
X30151Y714507D01*
X31546Y714930D01*
X32831Y715617D01*
X33958Y716542D01*
X34883Y717669D01*
X35570Y718954D01*
X35993Y720349D01*
X36136Y721800D01*
X35993Y723251D01*
X35570Y724646D01*
X34883Y725931D01*
X33958Y727058D01*
X32831Y727983D01*
X31546Y728670D01*
X30151Y729093D01*
X28700Y729236D01*
D02*
G37*
G36*
X28600Y678736D02*
X27149Y678593D01*
X25754Y678170D01*
X24469Y677483D01*
X23342Y676558D01*
X22417Y675431D01*
X21730Y674146D01*
X21307Y672751D01*
X21164Y671300D01*
X21307Y669849D01*
X21730Y668454D01*
X22417Y667169D01*
X23342Y666042D01*
X24469Y665117D01*
X25754Y664430D01*
X27149Y664007D01*
X28600Y663864D01*
X30051Y664007D01*
X31446Y664430D01*
X32731Y665117D01*
X33858Y666042D01*
X34783Y667169D01*
X35470Y668454D01*
X35893Y669849D01*
X36036Y671300D01*
X35893Y672751D01*
X35470Y674146D01*
X34783Y675431D01*
X33858Y676558D01*
X32731Y677483D01*
X31446Y678170D01*
X30051Y678593D01*
X28600Y678736D01*
D02*
G37*
G36*
X60031Y628921D02*
X57610D01*
Y626500D01*
X60031D01*
Y628921D01*
D02*
G37*
G36*
X55610D02*
X53189D01*
Y626500D01*
X55610D01*
Y628921D01*
D02*
G37*
G36*
X60031Y624500D02*
X57610D01*
Y622079D01*
X60031D01*
Y624500D01*
D02*
G37*
G36*
X55610D02*
X53189D01*
Y622079D01*
X55610D01*
Y624500D01*
D02*
G37*
G36*
X95900Y729236D02*
X94449Y729093D01*
X93054Y728670D01*
X91769Y727983D01*
X90642Y727058D01*
X89717Y725931D01*
X89030Y724646D01*
X88607Y723251D01*
X88464Y721800D01*
X88607Y720349D01*
X89030Y718954D01*
X89717Y717669D01*
X90642Y716542D01*
X91769Y715617D01*
X93054Y714930D01*
X94449Y714507D01*
X95900Y714364D01*
X97351Y714507D01*
X98746Y714930D01*
X100031Y715617D01*
X101158Y716542D01*
X102083Y717669D01*
X102770Y718954D01*
X103193Y720349D01*
X103336Y721800D01*
X103193Y723251D01*
X102770Y724646D01*
X102083Y725931D01*
X101158Y727058D01*
X100031Y727983D01*
X98746Y728670D01*
X97351Y729093D01*
X95900Y729236D01*
D02*
G37*
G36*
X248000Y702891D02*
X246992Y702759D01*
X246053Y702370D01*
X245246Y701751D01*
X244627Y700944D01*
X244238Y700004D01*
X244105Y698996D01*
X244238Y697988D01*
X244627Y697048D01*
X245246Y696241D01*
X246053Y695622D01*
X246992Y695233D01*
X248000Y695100D01*
X249009Y695233D01*
X249948Y695622D01*
X250755Y696241D01*
X251374Y697048D01*
X251763Y697988D01*
X251896Y698996D01*
X251763Y700004D01*
X251374Y700944D01*
X250755Y701751D01*
X249948Y702370D01*
X249009Y702759D01*
X248000Y702891D01*
D02*
G37*
G36*
X257252Y692686D02*
X255910Y692509D01*
X254659Y691991D01*
X253585Y691167D01*
X252761Y690093D01*
X252243Y688842D01*
X252066Y687500D01*
X252243Y686158D01*
X252761Y684907D01*
X253585Y683833D01*
X254659Y683009D01*
X255910Y682491D01*
X257252Y682314D01*
X258594Y682491D01*
X259845Y683009D01*
X260919Y683833D01*
X261743Y684907D01*
X262262Y686158D01*
X262438Y687500D01*
X262262Y688842D01*
X261743Y690093D01*
X260919Y691167D01*
X259845Y691991D01*
X258594Y692509D01*
X257252Y692686D01*
D02*
G37*
G36*
X95800Y678736D02*
X94349Y678593D01*
X92954Y678170D01*
X91669Y677483D01*
X90542Y676558D01*
X89617Y675431D01*
X88930Y674146D01*
X88507Y672751D01*
X88364Y671300D01*
X88507Y669849D01*
X88930Y668454D01*
X89617Y667169D01*
X90542Y666042D01*
X91669Y665117D01*
X92954Y664430D01*
X94349Y664007D01*
X95800Y663864D01*
X97251Y664007D01*
X98646Y664430D01*
X99931Y665117D01*
X101058Y666042D01*
X101983Y667169D01*
X102670Y668454D01*
X103093Y669849D01*
X103236Y671300D01*
X103093Y672751D01*
X102670Y674146D01*
X101983Y675431D01*
X101058Y676558D01*
X99931Y677483D01*
X98646Y678170D01*
X97251Y678593D01*
X95800Y678736D01*
D02*
G37*
G36*
X248000Y660891D02*
X246992Y660759D01*
X246053Y660370D01*
X245246Y659751D01*
X244627Y658944D01*
X244238Y658004D01*
X244105Y656996D01*
X244238Y655988D01*
X244627Y655048D01*
X245246Y654241D01*
X246053Y653622D01*
X246992Y653233D01*
X248000Y653100D01*
X249009Y653233D01*
X249948Y653622D01*
X250755Y654241D01*
X251374Y655048D01*
X251763Y655988D01*
X251896Y656996D01*
X251763Y658004D01*
X251374Y658944D01*
X250755Y659751D01*
X249948Y660370D01*
X249009Y660759D01*
X248000Y660891D01*
D02*
G37*
G36*
X257252Y650686D02*
X255910Y650509D01*
X254659Y649991D01*
X253585Y649167D01*
X252761Y648093D01*
X252243Y646842D01*
X252066Y645500D01*
X252243Y644158D01*
X252761Y642907D01*
X253585Y641833D01*
X254659Y641009D01*
X255910Y640491D01*
X257252Y640314D01*
X258594Y640491D01*
X259845Y641009D01*
X260919Y641833D01*
X261743Y642907D01*
X262262Y644158D01*
X262438Y645500D01*
X262262Y646842D01*
X261743Y648093D01*
X260919Y649167D01*
X259845Y649991D01*
X258594Y650509D01*
X257252Y650686D01*
D02*
G37*
G36*
X71390Y628789D02*
Y626500D01*
X73679D01*
X73378Y627225D01*
X72830Y627940D01*
X72115Y628488D01*
X71390Y628789D01*
D02*
G37*
G36*
X69390D02*
X68664Y628488D01*
X67950Y627940D01*
X67401Y627225D01*
X67101Y626500D01*
X69390D01*
Y628789D01*
D02*
G37*
G36*
X73679Y624500D02*
X71390D01*
Y622211D01*
X72115Y622511D01*
X72830Y623060D01*
X73378Y623775D01*
X73679Y624500D01*
D02*
G37*
G36*
X69390D02*
X67101D01*
X67401Y623775D01*
X67950Y623060D01*
X68664Y622511D01*
X69390Y622211D01*
Y624500D01*
D02*
G37*
G36*
X248000Y618396D02*
X246992Y618263D01*
X246053Y617874D01*
X245246Y617255D01*
X244627Y616448D01*
X244238Y615508D01*
X244105Y614500D01*
X244238Y613492D01*
X244627Y612552D01*
X245246Y611745D01*
X246053Y611126D01*
X246992Y610737D01*
X248000Y610604D01*
X249009Y610737D01*
X249948Y611126D01*
X250755Y611745D01*
X251374Y612552D01*
X251763Y613492D01*
X251896Y614500D01*
X251763Y615508D01*
X251374Y616448D01*
X250755Y617255D01*
X249948Y617874D01*
X249009Y618263D01*
X248000Y618396D01*
D02*
G37*
G36*
X257252Y608190D02*
X255910Y608013D01*
X254659Y607495D01*
X253585Y606671D01*
X252761Y605597D01*
X252243Y604346D01*
X252066Y603004D01*
X252243Y601662D01*
X252761Y600411D01*
X253585Y599337D01*
X254659Y598513D01*
X255910Y597995D01*
X257252Y597818D01*
X258594Y597995D01*
X259845Y598513D01*
X260919Y599337D01*
X261743Y600411D01*
X262262Y601662D01*
X262438Y603004D01*
X262262Y604346D01*
X261743Y605597D01*
X260919Y606671D01*
X259845Y607495D01*
X258594Y608013D01*
X257252Y608190D01*
D02*
G37*
G36*
X229000Y591038D02*
Y590000D01*
X230038D01*
X229622Y590622D01*
X229000Y591038D01*
D02*
G37*
G36*
X230038Y588000D02*
X229000D01*
Y586962D01*
X229622Y587378D01*
X230038Y588000D01*
D02*
G37*
G36*
X224000Y591274D02*
X223282Y591179D01*
X222613Y590902D01*
X222446Y590774D01*
X212500D01*
X211782Y590679D01*
X211113Y590402D01*
X210539Y589961D01*
X210098Y589387D01*
X209821Y588718D01*
X209726Y588000D01*
X209821Y587282D01*
X210098Y586613D01*
X210539Y586039D01*
X211113Y585598D01*
X211782Y585321D01*
X212500Y585226D01*
X223500D01*
X224218Y585321D01*
X224887Y585598D01*
X225461Y586039D01*
X225961Y586539D01*
X226402Y587113D01*
X226658Y587191D01*
X227000Y586962D01*
Y589000D01*
Y591038D01*
X226378Y590622D01*
X225768Y590610D01*
X225387Y590902D01*
X224718Y591179D01*
X224000Y591274D01*
D02*
G37*
G36*
X166656Y589419D02*
X165306Y589286D01*
X164008Y588892D01*
X162812Y588253D01*
X161763Y587392D01*
X160903Y586344D01*
X160263Y585147D01*
X159869Y583849D01*
X159737Y582500D01*
X159869Y581150D01*
X160263Y579852D01*
X160903Y578655D01*
X161763Y577607D01*
X162812Y576747D01*
X164008Y576107D01*
X165306Y575713D01*
X166656Y575581D01*
X168006Y575713D01*
X169303Y576107D01*
X170500Y576747D01*
X171548Y577607D01*
X172409Y578655D01*
X173048Y579852D01*
X173442Y581150D01*
X173575Y582500D01*
X173442Y583849D01*
X173048Y585147D01*
X172409Y586344D01*
X171548Y587392D01*
X170500Y588253D01*
X169303Y588892D01*
X168006Y589286D01*
X166656Y589419D01*
D02*
G37*
G36*
Y572846D02*
X165282Y572665D01*
X164002Y572135D01*
X162903Y571292D01*
X162059Y570193D01*
X161529Y568913D01*
X161348Y567539D01*
X161529Y566165D01*
X162059Y564885D01*
X162903Y563786D01*
X164002Y562943D01*
X165282Y562413D01*
X166656Y562232D01*
X168029Y562413D01*
X169309Y562943D01*
X170408Y563786D01*
X171252Y564885D01*
X171782Y566165D01*
X171963Y567539D01*
X171782Y568913D01*
X171252Y570193D01*
X170408Y571292D01*
X169309Y572135D01*
X168029Y572665D01*
X166656Y572846D01*
D02*
G37*
G36*
Y557886D02*
X165282Y557705D01*
X164002Y557175D01*
X162903Y556331D01*
X162059Y555232D01*
X161529Y553952D01*
X161348Y552578D01*
X161529Y551205D01*
X162059Y549925D01*
X162903Y548826D01*
X164002Y547982D01*
X165282Y547452D01*
X166656Y547271D01*
X168029Y547452D01*
X169309Y547982D01*
X170408Y548826D01*
X171252Y549925D01*
X171782Y551205D01*
X171963Y552578D01*
X171782Y553952D01*
X171252Y555232D01*
X170408Y556331D01*
X169309Y557175D01*
X168029Y557705D01*
X166656Y557886D01*
D02*
G37*
G36*
X197500Y571774D02*
X196782Y571679D01*
X196113Y571402D01*
X195539Y570961D01*
X195098Y570387D01*
X194821Y569718D01*
X194726Y569000D01*
Y550000D01*
X194821Y549282D01*
X195098Y548613D01*
X195539Y548039D01*
X196113Y547598D01*
X196782Y547321D01*
X197500Y547226D01*
X198218Y547321D01*
X198887Y547598D01*
X199461Y548039D01*
X199902Y548613D01*
X200179Y549282D01*
X200274Y550000D01*
Y569000D01*
X200179Y569718D01*
X199902Y570387D01*
X199461Y570961D01*
X198887Y571402D01*
X198218Y571679D01*
X197500Y571774D01*
D02*
G37*
G36*
X248000Y533891D02*
X246992Y533759D01*
X246053Y533370D01*
X245246Y532751D01*
X244627Y531944D01*
X244238Y531004D01*
X244105Y529996D01*
X244238Y528988D01*
X244627Y528048D01*
X245246Y527241D01*
X246053Y526622D01*
X246992Y526233D01*
X248000Y526100D01*
X249009Y526233D01*
X249948Y526622D01*
X250755Y527241D01*
X251374Y528048D01*
X251763Y528988D01*
X251896Y529996D01*
X251763Y531004D01*
X251374Y531944D01*
X250755Y532751D01*
X249948Y533370D01*
X249009Y533759D01*
X248000Y533891D01*
D02*
G37*
G36*
X257252Y523686D02*
X255910Y523509D01*
X254659Y522991D01*
X253585Y522167D01*
X252761Y521093D01*
X252243Y519842D01*
X252066Y518500D01*
X252243Y517158D01*
X252761Y515907D01*
X253585Y514833D01*
X254659Y514009D01*
X255910Y513491D01*
X257252Y513314D01*
X258594Y513491D01*
X259845Y514009D01*
X260919Y514833D01*
X261743Y515907D01*
X262262Y517158D01*
X262438Y518500D01*
X262262Y519842D01*
X261743Y521093D01*
X260919Y522167D01*
X259845Y522991D01*
X258594Y523509D01*
X257252Y523686D01*
D02*
G37*
G36*
X230890Y470789D02*
Y468500D01*
X233179D01*
X232878Y469225D01*
X232330Y469940D01*
X231615Y470489D01*
X230890Y470789D01*
D02*
G37*
G36*
X228890D02*
X228164Y470489D01*
X227450Y469940D01*
X226901Y469225D01*
X226601Y468500D01*
X228890D01*
Y470789D01*
D02*
G37*
G36*
X233179Y466500D02*
X230890D01*
Y464211D01*
X231615Y464511D01*
X232330Y465060D01*
X232878Y465775D01*
X233179Y466500D01*
D02*
G37*
G36*
X228890D02*
X226601D01*
X226901Y465775D01*
X227450Y465060D01*
X228164Y464511D01*
X228890Y464211D01*
Y466500D01*
D02*
G37*
%LPD*%
D54*
X249500Y60000D02*
D03*
X254500Y65000D02*
D03*
X249500D02*
D03*
X254500Y70000D02*
D03*
X249500D02*
D03*
X254500Y75000D02*
D03*
X249500D02*
D03*
X254500Y80000D02*
D03*
X249500D02*
D03*
D79*
X179500Y74500D02*
X180046Y75046D01*
X161000Y74500D02*
X179500D01*
X234340Y144340D02*
Y179160D01*
X236240Y141740D02*
Y290260D01*
X238140Y139140D02*
Y400360D01*
X236500Y137500D02*
X238140Y139140D01*
X231500Y407000D02*
X238140Y400360D01*
X232000Y137500D02*
X236240Y141740D01*
X232000Y294500D02*
X236240Y290260D01*
X227000Y137000D02*
X234340Y144340D01*
X232000Y181500D02*
X234340Y179160D01*
X83997Y178826D02*
X120000Y142823D01*
X83997Y178826D02*
Y181500D01*
X91500Y175411D02*
X125000Y141911D01*
X91500Y175411D02*
Y180000D01*
X125000Y141500D02*
Y141911D01*
X99000Y171500D02*
Y281779D01*
Y171500D02*
X130500Y140000D01*
X106240Y168260D02*
X136000Y138500D01*
X106240Y168260D02*
Y176519D01*
X136000Y138500D02*
Y138500D01*
X99000Y281779D02*
X106240Y289019D01*
X236500Y584000D02*
X241000Y579500D01*
Y138000D02*
Y579500D01*
X160882Y74618D02*
X161000Y74500D01*
X227000Y136500D02*
Y137000D01*
X232000D02*
Y137500D01*
X192000Y47500D02*
Y62000D01*
Y47500D02*
X195000Y44500D01*
X91500Y180000D02*
X91500Y180000D01*
X56813Y552578D02*
X84499Y524893D01*
X83997Y181500D02*
X84499Y524893D01*
X91500Y386779D02*
X106240Y401519D01*
X91500Y180000D02*
X91500Y386779D01*
D80*
X203454Y147500D02*
Y266500D01*
Y383000D02*
Y530710D01*
Y266500D02*
Y383000D01*
Y530710D02*
X225000Y552256D01*
X231000Y154000D02*
Y162000D01*
Y154000D02*
X231500Y153500D01*
X152000Y107500D02*
X171500D01*
X197500Y25000D02*
Y30000D01*
X211000Y43500D01*
X220333Y59500D02*
X227538Y66705D01*
X211000Y59500D02*
X220333D01*
X211000Y43500D02*
Y59500D01*
X203454Y147500D02*
X225500D01*
X203454Y131454D02*
Y147500D01*
X203954Y266500D02*
X217500D01*
X203954Y383000D02*
X218000D01*
X23239Y20761D02*
X39261D01*
X39500Y21000D01*
X77500Y133500D02*
X163000D01*
X163250Y133250D01*
X33500Y123500D02*
X60500Y150500D01*
X77500Y133500D01*
X89500Y121500D01*
X86500Y64000D02*
X89500Y67000D01*
X83393Y60893D02*
X86500Y64000D01*
X81393Y60893D02*
X83393D01*
X71000Y66500D02*
Y69500D01*
Y66500D02*
X76500Y61000D01*
X89500Y67000D02*
Y121500D01*
X222500Y199000D02*
X228000D01*
X216000Y181500D02*
X224000D01*
X222500Y313500D02*
X228000D01*
X216000Y294500D02*
X224000D01*
X215500Y407000D02*
X223500D01*
X222000Y424000D02*
X227500D01*
X212500Y588000D02*
X223500D01*
X224000Y588500D01*
X268839Y589000D02*
X282843Y603004D01*
X228000Y589000D02*
X268839D01*
X33500Y301500D02*
Y341279D01*
X197500Y550000D02*
Y569000D01*
X225000Y552256D02*
Y558500D01*
X237000Y559000D02*
Y574000D01*
X58063Y648000D02*
X108000D01*
X226500Y60500D02*
X228000D01*
X232281Y56219D01*
X33500Y414000D02*
Y453779D01*
X56240Y476519D01*
X33500Y341279D02*
X56240Y364019D01*
X33500Y189000D02*
Y228779D01*
X56240Y251519D01*
X228000Y199000D02*
Y208488D01*
Y181500D02*
Y199000D01*
Y208488D02*
X229890Y210378D01*
Y241500D01*
X228000Y313500D02*
Y321988D01*
Y294500D02*
Y313500D01*
Y321988D02*
X229890Y323878D01*
Y355500D01*
X227500Y424000D02*
Y433738D01*
Y407000D02*
Y424000D01*
Y433738D02*
X229890Y436128D01*
Y467500D01*
X227538Y66705D02*
X228358D01*
X241634Y92295D02*
X282843Y133504D01*
X228358Y92295D02*
X241634D01*
X228358Y66705D02*
Y92295D01*
X131280Y176519D02*
X193799D01*
X131280Y289019D02*
X193799D01*
X131280Y401519D02*
X193799D01*
X232281Y56219D02*
X234781D01*
X194500Y122500D02*
X203454Y131454D01*
X196000Y109500D02*
X216500D01*
D81*
X47600Y730000D02*
D03*
X77000D02*
D03*
X47500Y679500D02*
D03*
X76900D02*
D03*
D82*
X8500Y748500D02*
D03*
X122000Y14500D02*
D03*
X285000D02*
D03*
X301500Y748500D02*
D03*
X30000Y25811D02*
D03*
Y14000D02*
D03*
X18189Y25811D02*
D03*
Y14000D02*
D03*
X30000Y76500D02*
D03*
Y64689D02*
D03*
X18189Y76500D02*
D03*
Y64689D02*
D03*
D83*
X193799Y364019D02*
D03*
Y289019D02*
D03*
X131280D02*
D03*
X118760D02*
D03*
X106240D02*
D03*
X56240D02*
D03*
X193799Y251519D02*
D03*
Y176519D02*
D03*
X131280D02*
D03*
X118760D02*
D03*
X106240D02*
D03*
X56240D02*
D03*
Y401519D02*
D03*
X106240D02*
D03*
X118760D02*
D03*
X131280D02*
D03*
X193799D02*
D03*
Y476519D02*
D03*
D84*
X56240Y364019D02*
D03*
Y251519D02*
D03*
Y476519D02*
D03*
D85*
X229890Y467500D02*
D03*
Y241500D02*
D03*
Y355500D02*
D03*
X70390Y625500D02*
D03*
D86*
X216110Y467500D02*
D03*
Y241500D02*
D03*
Y355500D02*
D03*
X56610Y625500D02*
D03*
D87*
X282843Y687500D02*
D03*
X257252D02*
D03*
X282843Y645500D02*
D03*
X257252D02*
D03*
X282843Y603004D02*
D03*
X257252D02*
D03*
X282843Y518500D02*
D03*
X257252D02*
D03*
X282843Y476500D02*
D03*
X257252D02*
D03*
X282843Y434004D02*
D03*
X257252D02*
D03*
X282843Y389500D02*
D03*
X257252D02*
D03*
X282843Y346500D02*
D03*
X257252D02*
D03*
X282843Y304500D02*
D03*
X257252D02*
D03*
X282843Y262004D02*
D03*
X257252D02*
D03*
X282843Y218000D02*
D03*
X257252D02*
D03*
X282843Y176000D02*
D03*
X257252D02*
D03*
X282843Y133504D02*
D03*
X257252D02*
D03*
D88*
X254500Y60000D02*
D03*
D89*
X210642Y66705D02*
D03*
Y92295D02*
D03*
X228358Y66705D02*
D03*
Y92295D02*
D03*
D90*
X56813Y582500D02*
D03*
D91*
Y552578D02*
D03*
Y522657D02*
D03*
X166656Y552578D02*
D03*
Y567539D02*
D03*
D92*
Y522657D02*
D03*
Y582500D02*
D03*
D93*
X180046Y75046D02*
D03*
X231000Y162000D02*
D03*
X171500Y107500D02*
D03*
X197500Y25000D02*
D03*
X211000Y59500D02*
D03*
X231500Y153500D02*
D03*
X225500Y147500D02*
D03*
X217500Y266500D02*
D03*
X218000Y383000D02*
D03*
X39500Y21000D02*
D03*
X23239Y20761D02*
D03*
X120000Y142823D02*
D03*
X125000Y141500D02*
D03*
X130500Y140000D02*
D03*
X136000Y138500D02*
D03*
X60500Y150500D02*
D03*
X33500Y123500D02*
D03*
X163250Y133250D02*
D03*
X81393Y60893D02*
D03*
X86500Y64000D02*
D03*
X76500Y61000D02*
D03*
X71000Y69500D02*
D03*
X89500Y121500D02*
D03*
X222500Y199000D02*
D03*
X232000Y181500D02*
D03*
X228000D02*
D03*
X216000D02*
D03*
X224000D02*
D03*
X222500Y313500D02*
D03*
X232000Y294500D02*
D03*
X228000D02*
D03*
X216000D02*
D03*
X224000D02*
D03*
X231500Y407000D02*
D03*
X227500D02*
D03*
X215500D02*
D03*
X223500D02*
D03*
X222000Y424000D02*
D03*
X212500Y588000D02*
D03*
X224000Y588500D02*
D03*
X228000Y589000D02*
D03*
X33500Y189000D02*
D03*
Y301500D02*
D03*
Y414000D02*
D03*
X197500Y550000D02*
D03*
Y569000D02*
D03*
X225000Y558500D02*
D03*
X237000Y574000D02*
D03*
Y559000D02*
D03*
X236500Y584000D02*
D03*
X58063Y648000D02*
D03*
X108000Y648000D02*
D03*
X160882Y74618D02*
D03*
X196000Y109500D02*
D03*
X227000Y136500D02*
D03*
X232000Y137000D02*
D03*
X241000Y138000D02*
D03*
X236500Y137500D02*
D03*
X226500Y60500D02*
D03*
X192000Y62000D02*
D03*
X195000Y44500D02*
D03*
X152000Y107500D02*
D03*
X216500Y109500D02*
D03*
X194500Y122500D02*
D03*
X234781Y56219D02*
D03*
M02*
