G04*
G04 #@! TF.GenerationSoftware,Altium Limited,Altium Designer,20.0.10 (225)*
G04*
G04 Layer_Color=32768*
%FSLAX25Y25*%
%MOIN*%
G70*
G01*
G75*
%ADD10C,0.00787*%
%ADD16C,0.00197*%
%ADD18C,0.00394*%
D10*
X224331Y17157D02*
X265669D01*
Y36843D01*
X224331D02*
X265669D01*
X224331Y17157D02*
Y36843D01*
D16*
X207110Y96260D02*
Y103740D01*
X220890Y96260D02*
Y103740D01*
X207110D02*
X220890D01*
X207110Y96260D02*
X220890D01*
X73685Y66154D02*
Y72847D01*
X84315Y66154D02*
Y72847D01*
X73685D02*
X84315D01*
X73685Y66154D02*
X84315D01*
X232441Y42654D02*
Y49347D01*
X243071Y42654D02*
Y49347D01*
X232441D02*
X243071D01*
X232441Y42654D02*
X243071D01*
X264653Y67815D02*
X271346D01*
X264653Y57185D02*
X271346D01*
Y67815D01*
X264653Y57185D02*
Y67815D01*
X194815Y21654D02*
Y28346D01*
X184185Y21654D02*
Y28346D01*
Y21654D02*
X194815D01*
X184185Y28346D02*
X194815D01*
X213846Y45488D02*
Y56512D01*
X207154Y45488D02*
Y56512D01*
X213846D01*
X207154Y45488D02*
X213846D01*
X92847Y105988D02*
Y117012D01*
X86154Y105988D02*
Y117012D01*
X92847D01*
X86154Y105988D02*
X92847D01*
X228153Y561315D02*
X234846D01*
X228153Y550685D02*
X234846D01*
Y561315D01*
X228153Y550685D02*
Y561315D01*
X226654Y269071D02*
X233347D01*
X226654Y258441D02*
X233347D01*
Y269071D01*
X226654Y258441D02*
Y269071D01*
X228153Y150071D02*
X234846D01*
X228153Y139441D02*
X234846D01*
Y150071D01*
X228153Y139441D02*
Y150071D01*
X221504Y585890D02*
X234496D01*
X221504Y572110D02*
X234496D01*
Y585890D01*
X221504Y572110D02*
Y585890D01*
X221004Y404390D02*
X233996D01*
X221004Y390610D02*
X233996D01*
Y404390D01*
X221004Y390610D02*
Y404390D01*
X221504Y291890D02*
X234496D01*
X221504Y278110D02*
X234496D01*
Y291890D01*
X221504Y278110D02*
Y291890D01*
Y178890D02*
X234496D01*
X221504Y165110D02*
X234496D01*
Y178890D01*
X221504Y165110D02*
Y178890D01*
X226431Y385571D02*
X233124D01*
X226431Y374941D02*
X233124D01*
Y385571D01*
X226431Y374941D02*
Y385571D01*
X210882Y178465D02*
X221118D01*
X210882Y161535D02*
X221118D01*
Y178465D01*
X210882Y161535D02*
Y178465D01*
X212063Y289138D02*
X219937D01*
X212063Y275752D02*
X219937D01*
Y289138D01*
X212063Y275752D02*
Y289138D01*
X48248Y371992D02*
X201752D01*
X48248Y281008D02*
X201752D01*
Y371992D01*
X48248Y281008D02*
Y371992D01*
X208563Y585630D02*
X216437D01*
X208563Y572244D02*
X216437D01*
Y585630D01*
X208563Y572244D02*
Y585630D01*
X210382Y403803D02*
X220618D01*
X210382Y386874D02*
X220618D01*
Y403803D01*
X210382Y386874D02*
Y403803D01*
X151228Y86771D02*
X204772D01*
X151228Y33228D02*
Y86771D01*
Y33228D02*
X204772D01*
Y86771D01*
X48248Y259492D02*
X201752D01*
X48248Y168508D02*
X201752D01*
Y259492D01*
X48248Y168508D02*
Y259492D01*
X74004Y103941D02*
Y144886D01*
X46839Y103941D02*
Y144886D01*
X74004D01*
X46839Y103941D02*
X74004D01*
X192327Y570374D02*
Y587303D01*
X202563Y570374D02*
Y587303D01*
X192327Y570374D02*
X202563D01*
X192327Y587303D02*
X202563D01*
X200354Y533610D02*
Y547390D01*
X194646Y533610D02*
X200354D01*
X194646Y547390D02*
X200354D01*
X194646Y533610D02*
Y547390D01*
X171610Y131354D02*
X185390D01*
Y125646D02*
Y131354D01*
X171610Y125646D02*
Y131354D01*
Y125646D02*
X185390D01*
X180346Y105134D02*
Y115764D01*
X173654Y105134D02*
Y115764D01*
X180346D01*
X173654Y105134D02*
X180346D01*
X205685Y194846D02*
X216315D01*
X205685Y188154D02*
X216315D01*
X205685D02*
Y194846D01*
X216315Y188154D02*
Y194846D01*
X205110Y201854D02*
X218890D01*
Y196146D02*
Y201854D01*
X205110Y196146D02*
Y201854D01*
Y196146D02*
X218890D01*
X205110Y316354D02*
X218890D01*
Y310646D02*
Y316354D01*
X205110Y310646D02*
Y316354D01*
Y310646D02*
X218890D01*
X203732Y310921D02*
X220268D01*
X203732Y301079D02*
X220268D01*
X203732D02*
Y310921D01*
X220268Y301079D02*
Y310921D01*
X55346Y6185D02*
Y16815D01*
X48654Y6185D02*
Y16815D01*
X55346D01*
X48654Y6185D02*
X55346D01*
X116236Y158653D02*
X126866D01*
X116236Y165346D02*
X126866D01*
Y158653D02*
Y165346D01*
X116236Y158653D02*
Y165346D01*
X114374Y269382D02*
X131303D01*
X114374Y279618D02*
X131303D01*
Y269382D02*
Y279618D01*
X114374Y269382D02*
Y279618D01*
X116685Y383653D02*
X127315D01*
X116685Y390346D02*
X127315D01*
Y383653D02*
Y390346D01*
X116685Y383653D02*
Y390346D01*
X205110Y426854D02*
X218890D01*
Y421146D02*
Y426854D01*
X205110Y421146D02*
Y426854D01*
Y421146D02*
X218890D01*
X205004Y420740D02*
X217996D01*
X205004Y413260D02*
X217996D01*
X205004D02*
Y420740D01*
X217996Y413260D02*
Y420740D01*
X40232Y652921D02*
X56768D01*
X40232Y643079D02*
X56768D01*
X40232D02*
Y652921D01*
X56768Y643079D02*
Y652921D01*
X110610Y650854D02*
X124390D01*
Y645146D02*
Y650854D01*
X110610Y645146D02*
Y650854D01*
Y645146D02*
X124390D01*
X36846Y106185D02*
Y116815D01*
X30154Y106185D02*
Y116815D01*
X36846D01*
X30154Y106185D02*
X36846D01*
X180154Y520634D02*
Y531263D01*
X186846Y520634D02*
Y531263D01*
X180154Y520634D02*
X186846D01*
X180154Y531263D02*
X186846D01*
X180154Y544236D02*
X186846D01*
X180154Y554866D02*
X186846D01*
X180154Y544236D02*
Y554866D01*
X186846Y544236D02*
Y554866D01*
X30154Y400185D02*
X36846D01*
X30154Y410815D02*
X36846D01*
X30154Y400185D02*
Y410815D01*
X36846Y400185D02*
Y410815D01*
X48248Y393508D02*
Y484492D01*
X201752Y393508D02*
Y484492D01*
X48248Y393508D02*
X201752D01*
X48248Y484492D02*
X201752D01*
X30154Y287685D02*
X36846D01*
X30154Y298315D02*
X36846D01*
X30154Y287685D02*
Y298315D01*
X36846Y287685D02*
Y298315D01*
X30154Y175185D02*
X36846D01*
X30154Y185815D02*
X36846D01*
X30154Y175185D02*
Y185815D01*
X36846Y175185D02*
Y185815D01*
D18*
X212032Y100000D02*
X215968D01*
X214000Y98032D02*
Y101969D01*
X77031Y69500D02*
X80968D01*
X79000Y67532D02*
Y71469D01*
X235787Y46000D02*
X239724D01*
X237756Y44032D02*
Y47969D01*
X268000Y60532D02*
Y64468D01*
X266032Y62500D02*
X269969D01*
X187531Y25000D02*
X191469D01*
X189500Y23031D02*
Y26969D01*
X208531Y51000D02*
X212469D01*
X210500Y50032D02*
Y53969D01*
X87532Y111500D02*
X91469D01*
X89500Y110531D02*
Y114469D01*
X231500Y554032D02*
Y557969D01*
X229532Y556000D02*
X233469D01*
X230000Y261787D02*
Y265724D01*
X228031Y263756D02*
X231968D01*
X231500Y142787D02*
Y146724D01*
X229532Y144756D02*
X233469D01*
X228000Y577032D02*
Y580969D01*
X226031Y579000D02*
X229969D01*
X227500Y395532D02*
Y399468D01*
X225532Y397500D02*
X229468D01*
X228000Y283032D02*
Y286968D01*
X226031Y285000D02*
X229969D01*
X228000Y170031D02*
Y173969D01*
X226031Y172000D02*
X229969D01*
X229778Y378287D02*
Y382224D01*
X227809Y380256D02*
X231746D01*
X216000Y168032D02*
Y171968D01*
X214032Y170000D02*
X217969D01*
X216000Y280476D02*
Y284413D01*
X214032Y282445D02*
X217969D01*
X125000Y324531D02*
Y328468D01*
X123032Y326500D02*
X126969D01*
X212500Y576968D02*
Y580905D01*
X210531Y578937D02*
X214469D01*
X215500Y393370D02*
Y397307D01*
X213531Y395339D02*
X217469D01*
X125000Y212031D02*
Y215968D01*
X123032Y214000D02*
X126969D01*
X58453Y124413D02*
X62390D01*
X60421Y122445D02*
Y126382D01*
X195476Y578839D02*
X199413D01*
X197445Y576870D02*
Y580807D01*
X195531Y540500D02*
X199469D01*
X197500Y538531D02*
Y542469D01*
X178500Y126532D02*
Y130469D01*
X176532Y128500D02*
X180469D01*
X175032Y110449D02*
X178969D01*
X177000Y108480D02*
Y112417D01*
X211000Y189532D02*
Y193469D01*
X209032Y191500D02*
X212968D01*
X212000Y197032D02*
Y200969D01*
X210032Y199000D02*
X213969D01*
X212000Y311532D02*
Y315469D01*
X210032Y313500D02*
X213969D01*
X212000Y304031D02*
Y307968D01*
X210032Y306000D02*
X213968D01*
X50032Y11500D02*
X53969D01*
X52000Y9531D02*
Y13468D01*
X121551Y160031D02*
Y163968D01*
X119583Y162000D02*
X123520D01*
X122839Y272531D02*
Y276468D01*
X120870Y274500D02*
X124807D01*
X122000Y385031D02*
Y388968D01*
X120032Y387000D02*
X123969D01*
X212000Y422032D02*
Y425969D01*
X210032Y424000D02*
X213969D01*
X211500Y415032D02*
Y418969D01*
X209531Y417000D02*
X213468D01*
X48500Y646032D02*
Y649968D01*
X46532Y648000D02*
X50469D01*
X117500Y646032D02*
Y649968D01*
X115532Y648000D02*
X119468D01*
X31532Y111500D02*
X35469D01*
X33500Y109531D02*
Y113468D01*
X181532Y525949D02*
X185469D01*
X183500Y523980D02*
Y527917D01*
Y547582D02*
Y551519D01*
X181532Y549551D02*
X185469D01*
X33500Y403531D02*
Y407468D01*
X31532Y405500D02*
X35469D01*
X123032Y439000D02*
X126969D01*
X125000Y437031D02*
Y440968D01*
X33500Y291031D02*
Y294968D01*
X31532Y293000D02*
X35469D01*
X33500Y178531D02*
Y182468D01*
X31532Y180500D02*
X35469D01*
M02*
