%FSTAX23Y23*%
%MOIN*%
%SFA1B1*%

%IPPOS*%
%ADD14C,0.015750*%
%ADD16C,0.001970*%
%ADD18C,0.003940*%
%ADD95C,0.005910*%
%LNchassispowerdistribution_b_1.0_rw-1*%
%LPD*%
G54D14*
X01936Y00879D02*
D01*
X01936Y0088*
X01936Y0088*
X01936Y00881*
X01936Y00882*
X01936Y00882*
X01936Y00883*
X01935Y00883*
X01935Y00884*
X01935Y00884*
X01935Y00884*
X01934Y00885*
X01934Y00885*
X01933Y00886*
X01933Y00886*
X01932Y00886*
X01932Y00886*
X01931Y00887*
X01931Y00887*
X0193Y00887*
X0193Y00887*
X01929Y00887*
X01929Y00887*
X01928*
X01928Y00887*
X01927Y00887*
X01927Y00887*
X01926Y00887*
X01926Y00887*
X01925Y00886*
X01925Y00886*
X01924Y00886*
X01924Y00886*
X01923Y00885*
X01923Y00885*
X01922Y00884*
X01922Y00884*
X01922Y00884*
X01922Y00883*
X01921Y00883*
X01921Y00882*
X01921Y00882*
X01921Y00881*
X01921Y0088*
X01921Y0088*
X01921Y00879*
X01921Y00879*
X01921Y00878*
X01921Y00878*
X01921Y00877*
X01921Y00877*
X01921Y00876*
X01922Y00876*
X01922Y00875*
X01922Y00875*
X01922Y00874*
X01923Y00874*
X01923Y00874*
X01924Y00873*
X01924Y00873*
X01925Y00873*
X01925Y00872*
X01926Y00872*
X01926Y00872*
X01927Y00872*
X01927Y00872*
X01928Y00872*
X01928Y00872*
X01929*
X01929Y00872*
X0193Y00872*
X0193Y00872*
X01931Y00872*
X01931Y00872*
X01932Y00872*
X01932Y00873*
X01933Y00873*
X01933Y00873*
X01934Y00874*
X01934Y00874*
X01935Y00874*
X01935Y00875*
X01935Y00875*
X01935Y00876*
X01936Y00876*
X01936Y00877*
X01936Y00877*
X01936Y00878*
X01936Y00878*
X01936Y00879*
X01936Y00879*
G54D16*
X01803Y00756D02*
X01777D01*
X01772Y0075*
Y0074*
X01777Y00735*
X01803*
X01772Y00724D02*
Y00714D01*
Y00719*
X01803*
X01798Y00724*
Y00698D02*
X01803Y00693D01*
Y00682*
X01798Y00677*
X01777*
X01772Y00682*
Y00693*
X01777Y00698*
X01798*
G54D18*
X02096Y00973D02*
Y01026D01*
X02183Y00973D02*
Y01026D01*
X02096D02*
X02183D01*
X02096Y00973D02*
X02183D01*
X00746Y00666D02*
Y00723D01*
X00833Y00666D02*
Y00723D01*
X00746D02*
X00833D01*
X00746Y00666D02*
X00833D01*
X02334Y00431D02*
Y00488D01*
X0242Y00431D02*
Y00488D01*
X02334D02*
X0242D01*
X02334Y00431D02*
X0242D01*
X02651Y00668D02*
X02708D01*
X02651Y00581D02*
X02708D01*
Y00668*
X02651Y00581D02*
Y00668D01*
X01938Y00221D02*
Y00278D01*
X01851Y00221D02*
Y00278D01*
Y00221D02*
X01938D01*
X01851Y00278D02*
X01938D01*
X02133Y00465D02*
Y00554D01*
X02076Y00465D02*
Y00554D01*
X02133*
X02076Y00465D02*
X02133D01*
X00923Y0107D02*
Y01159D01*
X00866Y0107D02*
Y01159D01*
X00923*
X00866Y0107D02*
X00923D01*
X02286Y05603D02*
X02343D01*
X02286Y05516D02*
X02343D01*
Y05603*
X02286Y05516D02*
Y05603D01*
X02271Y0268D02*
X02328D01*
X02271Y02594D02*
X02328D01*
Y0268*
X02271Y02594D02*
Y0268D01*
X02286Y0149D02*
X02343D01*
X02286Y01404D02*
X02343D01*
Y0149*
X02286Y01404D02*
Y0149D01*
X02219Y05824D02*
X0234D01*
X02219Y05755D02*
X0234D01*
Y05824*
X02219Y05755D02*
Y05824D01*
X02214Y04009D02*
X02335D01*
X02214Y0394D02*
X02335D01*
Y04009*
X02214Y0394D02*
Y04009D01*
X02219Y02884D02*
X0234D01*
X02219Y02815D02*
X0234D01*
Y02884*
X02219Y02815D02*
Y02884D01*
Y01754D02*
X0234D01*
X02219Y01685D02*
X0234D01*
Y01754*
X02219Y01685D02*
Y01754D01*
X02269Y03845D02*
X02326D01*
X02269Y03759D02*
X02326D01*
Y03845*
X02269Y03759D02*
Y03845D01*
X02131Y01743D02*
X02188D01*
X02131Y01656D02*
X02188D01*
Y01743*
X02131Y01656D02*
Y01743D01*
Y02867D02*
X02188D01*
X02131Y02781D02*
X02188D01*
Y02867*
X02131Y02781D02*
Y02867D01*
X01997Y02829D02*
Y037D01*
X00502Y02829D02*
X01997D01*
X00502D02*
Y037D01*
X01997*
X02096Y05832D02*
X02153D01*
X02096Y05746D02*
X02153D01*
Y05832*
X02096Y05746D02*
Y05832D01*
X02126Y03996D02*
X02183D01*
X02126Y0391D02*
X02183D01*
Y03996*
X02126Y0391D02*
Y03996D01*
X01997Y01704D02*
Y02575D01*
X00502Y01704D02*
X01997D01*
X00502D02*
Y02575D01*
X01997*
X00736Y01143D02*
Y01387D01*
X00472Y01143D02*
Y01387D01*
X00736*
X00472Y01143D02*
X00736D01*
X01945Y05745D02*
Y05831D01*
X02002Y05745D02*
Y05831D01*
X01945Y05745D02*
X02002D01*
X01945Y05831D02*
X02002D01*
X01999Y05365D02*
Y05444D01*
X0195Y05365D02*
Y05444D01*
X01999*
X0195Y05365D02*
X01999D01*
X0195Y05432D02*
X01999D01*
X0195Y05377D02*
X01999D01*
X01745Y01309D02*
X01824D01*
X01745Y0126D02*
X01824D01*
X01745D02*
Y01309D01*
X01824Y0126D02*
Y01309D01*
X01757Y0126D02*
Y01309D01*
X01812Y0126D02*
Y01309D01*
X01798Y01061D02*
Y01147D01*
X01741Y01061D02*
Y01147D01*
X01798*
X01741Y01061D02*
X01798D01*
X02066Y01943D02*
X02153D01*
X02066Y01886D02*
X02153D01*
X02066D02*
Y01943D01*
X02153Y01886D02*
Y01943D01*
X0208Y02014D02*
X02159D01*
X0208Y01965D02*
X02159D01*
X0208D02*
Y02014D01*
X02159Y01965D02*
Y02014D01*
X02092Y01965D02*
Y02014D01*
X02147Y01965D02*
Y02014D01*
X0208Y03159D02*
X02159D01*
X0208Y0311D02*
X02159D01*
X0208D02*
Y03159D01*
X02159Y0311D02*
Y03159D01*
X02092Y0311D02*
Y03159D01*
X02147Y0311D02*
Y03159D01*
X02078Y03086D02*
X02161D01*
X02078Y03033D02*
X02161D01*
X02078D02*
Y03086D01*
X02161Y03033D02*
Y03086D01*
X00548Y00071D02*
Y00158D01*
X00491Y00071D02*
Y00158D01*
X00548*
X00491Y00071D02*
X00548D01*
X01172Y01591D02*
X01258D01*
X01172Y01648D02*
X01258D01*
Y01591D02*
Y01648D01*
X01172Y01591D02*
Y01648D01*
X01185Y02716D02*
X01271D01*
X01185Y02773D02*
X01271D01*
Y02716D02*
Y02773D01*
X01185Y02716D02*
Y02773D01*
X01176Y03841D02*
X01263D01*
X01176Y03898D02*
X01263D01*
Y03841D02*
Y03898D01*
X01176Y03841D02*
Y03898D01*
X0208Y04264D02*
X02159D01*
X0208Y04215D02*
X02159D01*
X0208D02*
Y04264D01*
X02159Y04215D02*
Y04264D01*
X02092Y04215D02*
Y04264D01*
X02147Y04215D02*
Y04264D01*
X02073Y04196D02*
X02156D01*
X02073Y04143D02*
X02156D01*
X02073D02*
Y04196D01*
X02156Y04143D02*
Y04196D01*
X00443Y06506D02*
X00526D01*
X00443Y06453D02*
X00526D01*
X00443D02*
Y06506D01*
X00526Y06453D02*
Y06506D01*
X01135Y06504D02*
X01214D01*
X01135Y06455D02*
X01214D01*
X01135D02*
Y06504D01*
X01214Y06455D02*
Y06504D01*
X01147Y06455D02*
Y06504D01*
X01202Y06455D02*
Y06504D01*
X00363Y01071D02*
Y01158D01*
X00306Y01071D02*
Y01158D01*
X00363*
X00306Y01071D02*
X00363D01*
X01806Y05216D02*
Y05302D01*
X01863Y05216D02*
Y05302D01*
X01806Y05216D02*
X01863D01*
X01806Y05302D02*
X01863D01*
X01806Y05452D02*
X01863D01*
X01806Y05538D02*
X01863D01*
X01806Y05452D02*
Y05538D01*
X01863Y05452D02*
Y05538D01*
X00306Y04011D02*
X00363D01*
X00306Y04098D02*
X00363D01*
X00306Y04011D02*
Y04098D01*
X00363Y04011D02*
Y04098D01*
X00502Y04825D02*
X01997D01*
X00502Y03954D02*
Y04825D01*
Y03954D02*
X01997D01*
Y04825*
X00306Y02886D02*
X00363D01*
X00306Y02973D02*
X00363D01*
X00306Y02886D02*
Y02973D01*
X00363Y02886D02*
Y02973D01*
X00306Y01761D02*
X00363D01*
X00306Y01848D02*
X00363D01*
X00306Y01761D02*
Y01848D01*
X00363Y01761D02*
Y01848D01*
G54D95*
X01978Y00401D02*
Y00798D01*
X01581Y00401D02*
X01978D01*
X01581D02*
Y00798D01*
X01978*
M02*